<?xml version="1.0" encoding="UTF-8" standalone="no"?>
<svg width="82px" height="131px" viewBox="0 0 82 131" version="1.1" xmlns="http://www.w3.org/2000/svg" xmlns:xlink="http://www.w3.org/1999/xlink">
    <!-- Generator: Sketch 3.6.1 (26313) - http://www.bohemiancoding.com/sketch -->
    <title>3</title>
    <desc>Created with Sketch.</desc>
    <defs></defs>
    <g id="官網" stroke="none" stroke-width="1" fill="none" fill-rule="evenodd">
        <g id="首頁" transform="translate(-839.000000, -834.000000)">
            <g id="服務項目" transform="translate(0.000000, 600.000000)">
                <g id="3" transform="translate(800.000000, 219.000000)">
                    <rect id="Rectangle-11" stroke="#FFFFFF" fill="#FFFFFF" opacity="0" x="0" y="0" width="160" height="160"></rect>
                    <g transform="translate(39.680000, 15.360000)" id="illustration">
                        <g>
                            <g id="Page-1" transform="translate(-0.000000, -0.000000)">
                                <g id="1" transform="translate(-0.000000, 0.000000)">
                                    <g id="Rocket" transform="translate(-0.000000, 0.000000)">
                                        <g id="illustration" transform="translate(-0.000000, 0.000000)">
                                            <path d="M73.1314706,104.792422 C73.1314706,104.783576 73.1320267,104.774177 73.1320267,104.765332 C73.1320267,97.7601561 70.2495638,91.4261414 65.6019191,86.8651201 C63.694366,74.6144934 53.0409878,65.2364808 40.1830788,65.2364808 C25.9759793,65.2364808 14.459475,76.6854735 14.459475,90.8080539 C14.459475,92.8906439 14.7158546,94.9124202 15.1880157,96.8507161 C7.26972381,97.7275378 1.11216463,104.40045 1.11216463,112.5058 C1.11216463,121.207123 8.2079285,128.261502 16.9615395,128.261502 C22.0741155,128.261502 26.6188747,125.852177 29.5169095,122.116563 C34.1256245,126.921391 40.6224278,129.920055 47.8277508,129.920055 C54.9507655,129.920055 61.3819445,126.989945 65.980649,122.281312 C67.3910148,123.091239 69.0227235,123.562268 70.7684405,123.562268 C76.0667666,123.562268 80.3618198,119.292599 80.3618198,114.025587 C80.3618198,109.570713 77.2847086,105.840074 73.1314706,104.792422" id="Fill-1" fill="#FFFFFF"></path>
                                            <g id="rocket" transform="translate(6.673655, 2.211404)">
                                                <path d="M18.909079,52.3844627 L2.78274737,75.4328236 L2.78274737,78.7797839 L18.909079,78.7797839 L18.909079,52.3844627 L18.909079,52.3844627 Z" id="Fill-4" fill="#DDE0E2"></path>
                                                <path d="M45.0470056,48.8933188 L45.0470056,27.040222 C45.0470056,22.8186512 43.996461,18.613666 42.0093802,14.8819214 L37.0514105,5.573568 C36.2177598,4.00844664 34.593837,3.03708732 32.8125272,3.03708732 C31.0312174,3.03708732 29.4067385,4.00844664 28.5736439,5.57301515 L23.6156743,14.8824742 C21.6280373,18.613666 20.5774927,22.8180984 20.5774927,27.0407748 L20.5780489,49.9990209 L20.5774927,50.0001266 L20.5774927,78.7798945 L20.5774927,80.3013406 L20.5774927,83.7599769 L45.0470056,83.7599769 L45.0470056,78.7798945 L62.8423071,78.7798945 L62.8423071,74.327232 L45.0470056,48.8933188 L45.0470056,48.8933188 Z" id="Fill-6" fill="#DDE0E2"></path>
                                                <path d="M18.3528854,33.4443381 L18.3534415,55.0082939" id="Stroke-8" stroke="#545E65" stroke-width="1.28"></path>
                                                <path d="M45.0468387,55.0084597 L45.0468387,33.444504" id="Stroke-10" stroke="#545E65" stroke-width="1.28"></path>
                                                <path d="M31.7001401,79.3363391 L31.7001401,47.8199585" id="Stroke-12" stroke="#545E65" stroke-width="2.56"></path>
                                                <path d="M18.3528854,75.4652206 L18.3534415,79.3362838" id="Stroke-14" stroke="#545E65" stroke-width="1.28"></path>
                                                <path d="M45.0468387,79.3363391 L45.0468387,75.4652759" id="Stroke-16" stroke="#545E65" stroke-width="1.28"></path>
                                                <path d="M41.7089545,29.8525753 L45.6030323,29.8525753" id="Stroke-18" stroke="#545E65" stroke-width="0.64"></path>
                                                <path d="M17.7926321,29.8525753 L21.6867098,29.8525753" id="Stroke-20" stroke="#545E65" stroke-width="0.64"></path>
                                                <path d="M41.7089545,39.2519833 L45.6030323,39.2519833" id="Stroke-22" stroke="#545E65" stroke-width="0.64"></path>
                                                <path d="M17.7926321,39.2519833 L21.6867098,39.2519833" id="Stroke-24" stroke="#545E65" stroke-width="0.64"></path>
                                                <path d="M29.7513772,29.8525753 L34.2004807,29.8525753" id="Stroke-26" stroke="#545E65" stroke-width="0.64"></path>
                                                <path d="M29.7513772,39.2519833 L34.2004807,39.2519833" id="Stroke-28" stroke="#545E65" stroke-width="0.64"></path>
                                                <path d="M63.398445,73.8073309 L45.6031435,48.3734177 L45.6031435,25.9348515 C45.6031435,21.4257983 44.4936483,16.9852985 42.371426,13.0009009 L37.4134563,3.69144184 C36.2928384,1.58784354 34.0944252,0.272058009 31.7002514,0.272058009 L31.7002514,0.272058009 C29.3055214,0.272058009 27.1076643,1.58784354 25.9870464,3.69144184 L21.0290767,13.0003481 C18.9062983,16.9852985 17.7968031,21.4263511 17.7968031,25.9354044 L17.7973592,48.3734177 L0.00150157241,73.8073309 L0.00150157241,79.3325244 L17.7968031,79.3325244 L17.7968031,84.3126068 L45.6031435,84.3126068 L45.6031435,79.3325244 L63.398445,79.3325244 L63.398445,73.8073309 L63.398445,73.8073309 L63.398445,73.8073309 Z" id="Stroke-30" stroke="#545E65" stroke-width="2.56"></path>
                                                <path d="M40.041653,17.9629603 C35.4307134,15.0146056 27.9684546,15.0146056 23.357515,17.9629603" id="Stroke-32" stroke="#545E65" stroke-width="2.56"></path>
                                                <path d="M39.5882893,88.7356917 L23.8117685,88.7356917 C22.8696708,93.4548284 22.5465547,103.360261 31.7000289,110.849734 C40.8535031,103.360261 40.530387,93.4548284 39.5882893,88.7356917" id="Fill-34" fill="#FFFFFF"></path>
                                                <path d="M39.8541789,90.3943555 L25.480794,90.3943555 C24.6388012,94.6098448 24.2973325,102.963977 30.758543,110.037707 C31.0616382,110.310815 31.3730754,110.582265 31.7000845,110.849845 C39.8892156,104.14929 40.4926252,95.518732 39.8541789,90.3943555" id="Fill-36" fill="#C9D937"></path>
                                                <path d="M11.1204228,88.7356917 L11.1204228,111.956542" id="Stroke-38" stroke="#545E65" stroke-width="1.28"></path>
                                                <path d="M61.1778419,83.2066282 L61.1778419,95.9222027" id="Stroke-40" stroke="#545E65" stroke-width="1.28"></path>
                                                <path d="M40.0448786,88.1828406 L39.5882893,88.1828406 L23.8117685,88.1828406 L23.3551793,88.1828406 L23.2661972,88.6278858 C22.4386639,92.7726102 21.5694204,103.27678 31.3468813,111.276535 L31.7000289,111.565676 L32.0537326,111.276535 C41.8311936,103.27678 40.9613939,92.7726102 40.1338606,88.6278858 L40.0448786,88.1828406 L40.0448786,88.1828406 Z M39.5882893,88.7356917 C40.530387,93.4548284 40.8535031,103.360261 31.7000289,110.849734 C22.5465547,103.360261 22.8696708,93.4548284 23.8117685,88.7356917 L39.5882893,88.7356917 L39.5882893,88.7356917 L39.5882893,88.7356917 Z" id="Fill-42" fill="#C9D937"></path>
                                                <path d="M30.0317263,88.7356917 L31.7001401,98.686458 L33.3685539,88.7356917 L30.0317263,88.7356917 L30.0317263,88.7356917 Z" id="Fill-44" fill="#FFFFFF"></path>
                                                <path d="M21.1338531,86.5202516 L21.1338531,88.7355259 L42.2659822,88.7355259 L42.2659822,86.5202516" id="Stroke-46" stroke="#545E65" stroke-width="1.28"></path>
                                            </g>
                                            <path d="M73.7809841,2.85641559 C72.2454872,2.85641559 71.0002944,1.61858206 71.0002944,0.0921602723 C71.0002944,1.61858206 69.7551016,2.85641559 68.2196047,2.85641559 C69.7551016,2.85641559 71.0002944,4.09424912 71.0002944,5.62067091 C71.0002944,4.09424912 72.2454872,2.85641559 73.7809841,2.85641559" id="Fill-48" fill="#C9D937"></path>
                                            <path d="M5.56137931,36.3960099 C4.02588248,36.3960099 2.78068966,35.1581764 2.78068966,33.6317546 C2.78068966,35.1581764 1.53549683,36.3960099 -9.23705556e-14,36.3960099 C1.53549683,36.3960099 2.78068966,37.6338435 2.78068966,39.1602653 C2.78068966,37.6338435 4.02588248,36.3960099 5.56137931,36.3960099" id="Fill-51" fill="#545E65"></path>
                                        </g>
                                    </g>
                                </g>
                            </g>
                        </g>
                    </g>
                </g>
            </g>
        </g>
    </g>
</svg>