<?xml version="1.0" encoding="UTF-8" standalone="no"?>
<svg width="80px" height="80px" viewBox="0 0 80 80" version="1.1" xmlns="http://www.w3.org/2000/svg" xmlns:xlink="http://www.w3.org/1999/xlink">
    <!-- Generator: Sketch 3.6.1 (26313) - http://www.bohemiancoding.com/sketch -->
    <title>accept</title>
    <desc>Created with Sketch.</desc>
    <defs></defs>
    <g id="Page-1" stroke="none" stroke-width="1" fill="none" fill-rule="evenodd">
        <g id="資源總匯---提交資源" transform="translate(-695.000000, -540.000000)" fill="#4CA950">
            <g id="accept" transform="translate(723.000000, 568.000000)">
                <path d="M12,52 C-10.09139,52 -28,34.09139 -28,12 C-28,-10.09139 -10.09139,-28 12,-28 C34.09139,-28 52,-10.09139 52,12 C52,34.09139 34.09139,52 12,52 L12,52 Z M12,-21.3333333 C-6.40949166,-21.3333333 -21.3333333,-6.40949166 -21.3333333,12 C-21.3333333,30.4094917 -6.40949166,45.3333333 12,45.3333333 C30.4094917,45.3333333 45.3333333,30.4094917 45.3333333,12 C45.3333333,-6.40949166 30.4094917,-21.3333333 12,-21.3333333 L12,-21.3333333 Z M11.7333333,26.4433333 C11.6149665,26.9375668 11.3609921,27.3889487 11,27.7466667 C10.3703205,28.3803793 9.48907373,28.6973833 8.6,28.61 C7.17206677,28.7096532 5.86768736,27.8007505 5.46666667,26.4266667 L-3.93333333,17.0333333 C-4.9866166,15.8463024 -4.93322949,14.0443096 -3.81151968,12.9217165 C-2.68980986,11.7991235 -0.887859596,11.744318 0.3,12.7966667 L7.56666667,20.0766667 L22.4333333,-6.28 C22.8645993,-7.06910321 23.5964011,-7.65048084 24.462587,-7.89213414 C25.3287728,-8.13378743 26.255851,-8.01521329 27.0333333,-7.56333333 C28.6422773,-6.57058922 29.1733263,-4.4803216 28.2333333,-2.84 L11.7333333,26.4433333 Z"></path>
            </g>
        </g>
    </g>
</svg>