<?xml version="1.0" encoding="UTF-8" standalone="no"?>
<svg width="150px" height="44px" viewBox="0 0 150 44" version="1.1" xmlns="http://www.w3.org/2000/svg" xmlns:xlink="http://www.w3.org/1999/xlink">
    <!-- Generator: Sketch 3.6.1 (26313) - http://www.bohemiancoding.com/sketch -->
    <title>logo-white</title>
    <desc>Created with Sketch.</desc>
    <defs></defs>
    <g id="資源總匯" stroke="none" stroke-width="1" fill="none" fill-rule="evenodd">
        <g id="資源總匯---首頁" transform="translate(-105.000000, -1149.000000)" fill="#FFFFFF">
            <g id="Footer" transform="translate(0.000000, 1080.000000)">
                <g id="Footers" transform="translate(0.000000, 0.245214)">
                    <g id="Group-8" transform="translate(100.000000, 68.000000)">
                        <g id="logo-white" transform="translate(5.000000, 0.754786)">
                            <path d="M54.112,15.248 L68.176,15.248 L68.176,24.536 C68.176,24.728 68.104,24.8 67.912,24.8 C67.72,24.8 67.216,24.8 66.616,24.776 C66.808,25.112 67.072,25.664 67.168,26.024 C68.056,26.024 68.704,26.024 69.136,25.784 C69.592,25.544 69.712,25.208 69.712,24.512 L69.712,13.928 L61.192,13.928 C61.48,13.4 61.768,12.824 62.056,12.2 L60.376,11.96 C60.184,12.488 59.848,13.28 59.56,13.928 L52.624,13.928 L52.624,25.88 L54.112,25.88 L54.112,15.248 Z M61.624,24.776 L61.624,22.256 C63.256,23.096 65.104,24.104 66.136,24.776 L66.832,23.792 C65.608,23.048 63.352,21.872 61.624,21.056 L66.856,21.056 L66.856,19.976 L64.024,19.976 C64.432,19.4 64.864,18.704 65.296,17.888 L64.192,17.504 C63.952,18.128 63.448,19.04 63.064,19.664 L63.808,19.976 L61.624,19.976 L61.624,17.312 C63.424,17.192 65.128,17.024 66.424,16.808 L65.632,15.848 C63.328,16.232 59.056,16.496 55.648,16.568 C55.792,16.856 55.936,17.24 55.984,17.528 C57.352,17.528 58.864,17.48 60.352,17.408 L60.352,19.976 L58.072,19.976 L58.864,19.64 C58.72,19.112 58.336,18.344 57.904,17.792 L56.896,18.128 C57.28,18.68 57.64,19.4 57.808,19.976 L55.288,19.976 L55.288,21.056 L59.536,21.056 C58.288,22.232 56.44,23.336 54.832,23.888 C55.12,24.128 55.504,24.56 55.72,24.872 C57.232,24.2 59.08,23 60.352,21.728 L60.352,24.776 L61.624,24.776 Z M71.68,28.256 L71.68,26.888 L61.456,26.888 C61.576,26.456 61.672,25.976 61.768,25.496 L60.088,25.496 C59.992,25.976 59.896,26.456 59.752,26.888 L50.344,26.888 L50.344,28.256 L59.2,28.256 C58,30.464 55.552,31.832 50.056,32.48 C50.32,32.816 50.68,33.464 50.8,33.824 C57.04,32.984 59.704,31.208 60.976,28.256 L71.68,28.256 Z M61.672,29.504 C64.696,30.824 68.824,32.744 70.912,33.872 L71.704,32.624 C69.544,31.472 65.44,29.672 62.44,28.448 L61.672,29.504 Z M80.616,25.016 L80.616,21.968 L86.184,21.968 L86.184,25.016 L80.616,25.016 Z M93.504,21.968 L93.504,25.016 L87.816,25.016 L87.816,21.968 L93.504,21.968 Z M83.328,15.488 L90.672,15.488 L90.672,17.624 L83.328,17.624 L83.328,15.488 Z M97.68,28.52 L87.816,28.52 L87.816,26.336 L95.16,26.336 L95.16,20.672 L87.816,20.672 L87.816,18.896 L92.28,18.896 L92.28,15.488 L97.272,15.488 L97.272,14.072 L92.28,14.072 L92.28,11.936 L90.672,11.936 L90.672,14.072 L83.328,14.072 L83.328,11.936 L81.768,11.936 L81.768,14.072 L76.776,14.072 L76.776,15.488 L81.768,15.488 L81.768,18.896 L86.184,18.896 L86.184,20.672 L79.032,20.672 L79.032,26.336 L86.184,26.336 L86.184,28.52 L76.344,28.52 L76.344,29.984 L86.184,29.984 L86.184,33.824 L87.816,33.824 L87.816,29.984 L97.68,29.984 L97.68,28.52 Z M114.896,14.336 L119.096,14.336 L119.096,18.416 C119.096,20.096 119.384,20.72 120.848,20.72 L122.48,20.72 C122.888,20.72 123.368,20.696 123.608,20.6 C123.56,20.24 123.512,19.616 123.488,19.232 C123.2,19.28 122.768,19.328 122.456,19.328 L120.944,19.328 C120.608,19.328 120.56,19.112 120.56,18.44 L120.56,12.824 L113.408,12.824 L113.408,15.464 C113.408,17.192 112.976,19.208 110.408,20.72 C110.672,20.96 111.224,21.536 111.44,21.872 C114.272,20.168 114.896,17.624 114.896,15.512 L114.896,14.336 Z M107.96,14.936 C107.576,14.072 106.808,12.824 106.088,11.864 L104.84,12.488 C105.536,13.472 106.304,14.816 106.664,15.68 L107.96,14.936 Z M111.248,16.04 L102.224,16.04 L102.224,17.36 L111.248,17.36 L111.248,16.04 Z M103.256,23.552 L110.288,23.552 L110.288,22.256 L103.256,22.256 L103.256,23.552 Z M103.256,19.16 L103.256,20.432 L110.264,20.432 L110.264,19.16 L103.256,19.16 Z M108.824,26.792 L108.824,30.992 L104.624,30.992 L104.624,26.792 L108.824,26.792 Z M110.264,32.336 L110.264,25.448 L103.232,25.448 L103.232,33.488 L104.624,33.488 L104.624,32.336 L110.264,32.336 Z M120.536,24.032 C119.72,25.952 118.496,27.536 117.008,28.832 C115.52,27.488 114.344,25.88 113.528,24.032 L120.536,24.032 Z M121.568,22.448 L121.304,22.52 L111.032,22.52 L111.032,24.032 L113,24.032 L112.112,24.344 C113.024,26.456 114.248,28.304 115.808,29.792 C114.104,31.016 112.136,31.88 110.144,32.408 C110.456,32.768 110.816,33.416 110.984,33.848 C113.144,33.176 115.208,32.216 117.008,30.848 C118.736,32.168 120.728,33.176 123.032,33.8 C123.248,33.344 123.704,32.696 124.04,32.36 C121.856,31.856 119.912,30.992 118.232,29.816 C120.176,28.064 121.688,25.784 122.6,22.904 L121.568,22.448 Z M134.584,14.936 C134.224,14.096 133.432,12.848 132.736,11.888 L131.512,12.512 C132.16,13.472 132.952,14.816 133.288,15.68 L134.584,14.936 Z M138.472,16.04 L128.632,16.04 L128.632,17.36 L138.472,17.36 L138.472,16.04 Z M137.368,22.256 L129.688,22.256 L129.688,23.552 L137.368,23.552 L137.368,22.256 Z M136,26.792 L136,30.992 L131.296,30.992 L131.296,26.792 L136,26.792 Z M137.44,25.448 L129.88,25.448 L129.88,33.488 L131.296,33.488 L131.296,32.336 L137.44,32.336 L137.44,25.448 Z M129.688,20.432 L137.44,20.432 L137.44,19.16 L129.688,19.16 L129.688,20.432 Z M149.824,20.288 L144.832,20.288 L144.832,12.416 L143.2,12.416 L143.2,20.288 L138.4,20.288 L138.4,21.848 L143.2,21.848 L143.2,33.824 L144.832,33.824 L144.832,21.848 L149.824,21.848 L149.824,20.288 Z" id="奧革設計"></path>
                            <path d="M34.6591712,26.7874738 C30.9418617,13.5579259 20.9611402,-0.598205103 16.48,0.0195169769 C13.6792874,0.379854857 14.2394299,4.24061786 14.2394299,4.34357154 C14.392196,5.27015466 16.7855323,14.8963237 15.3087929,24.7284002 C16.1744677,25.3975991 17.0401425,26.1182749 17.8039733,26.8904275 C18.4150378,23.184095 18.9751804,14.5874627 17.3965969,6.66002934 C16.5309221,2.13006742 17.9567394,3.93175682 18.1095055,4.08618734 C22.3360355,7.6380893 37.3580398,32.8102641 30.228953,39.7081606 C29.5160443,40.3258827 27.7846947,40.3258827 26.1042671,38.1123786 C24.4238395,35.8988745 14.8504945,20.8161603 4.15686435,21.1764982 C1.61076194,21.2794519 0.286788691,23.3900023 1.25430761,25.3975991 C1.81445014,26.6330433 5.32807146,30.5452831 0.745087124,38.1638554 C0.745087124,38.1638554 -2.31023577,43.6718773 3.95317616,43.6718773 L3.95317616,43.6718773 L4.00409821,43.6718773 C6.75388881,43.6718773 13.3737551,41.9731416 16.5818441,31.9351578 C15.7670913,30.9570978 15.0032606,30.1334684 14.2394299,29.4127926 C13.0173007,33.5824167 9.6055235,40.4803132 5.22622736,41.7157574 C2.98565724,42.3849563 2.32367062,41.7672342 2.27274857,40.9436048 C2.42551471,39.8625912 3.03657929,38.5241933 3.18934544,38.1638554 C5.5826817,33.0676483 5.37899351,29.9790379 3.59672182,26.6330433 C1.91629423,23.4414792 4.15686435,23.2355718 4.2077864,23.2355718 C7.67048567,23.184095 13.7811315,25.3975991 22.0814253,38.1123786 C22.0814253,38.1123786 26.1551892,44.752891 30.3817192,43.9292615 C30.4326412,43.8777847 39.2930776,43.2600626 34.6591712,26.7874738 L34.6591712,26.7874738 Z" id="Shape"></path>
                        </g>
                    </g>
                </g>
            </g>
        </g>
    </g>
</svg>