<?xml version="1.0" encoding="UTF-8" standalone="no"?>
<svg width="144px" height="44px" viewBox="0 0 144 44" version="1.1" xmlns="http://www.w3.org/2000/svg" xmlns:xlink="http://www.w3.org/1999/xlink">
    <!-- Generator: Sketch 3.6.1 (26313) - http://www.bohemiancoding.com/sketch -->
    <title>logo</title>
    <desc>Created with Sketch.</desc>
    <defs></defs>
    <g id="資源總匯" stroke="none" stroke-width="1" fill="none" fill-rule="evenodd" opacity="0.9">
        <g id="資源總匯---首頁" transform="translate(-90.000000, -18.000000)">
            <g id="Navigation">
                <g id="logo" transform="translate(90.000000, 18.000000)">
                    <text id="奧革設計" font-family="PingFangTC-Light, PingFang TC" font-size="24" font-weight="300" fill="#595757">
                        <tspan x="49" y="31">奧革設計</tspan>
                    </text>
                    <g id="Group">
                        <path d="M18.26875,4.51578947 C18.615625,4.86315789 17.228125,2.54736842 15.95625,2.31578947 C14.684375,2.2 14.221875,3.58947368 14.453125,4.74736842 C14.684375,5.90526316 18.5,21.1894737 13.18125,33 C13.18125,33 9.94375,40.2947368 5.55,41.4526316 C0.925,42.7263158 3.121875,38.9052632 3.121875,38.9052632 C3.121875,38.9052632 1.271875,40.0631579 1.15625,41.3368421 C1.040625,42.2631579 2.08125,43.4210526 4.278125,43.4210526 C8.209375,43.4210526 20.234375,39.9473684 18.5,13.4315789 C18.384375,11.9263158 18.26875,10.4210526 18.0375,8.8 C17.459375,6.13684211 16.534375,2.77894737 18.26875,4.51578947 L18.26875,4.51578947 Z" id="Shape" fill="#4CA950"></path>
                        <path d="M32.60625,36.9368421 C32.60625,36.9368421 32.259375,37.9789474 30.409375,39.7157895 C29.715625,40.2947368 27.98125,40.4105263 26.246875,38.2105263 C24.628125,36.0105263 15.03125,21.0736842 4.39375,21.4210526 C1.734375,21.5368421 0.4625,23.7368421 1.61875,25.9368421 C2.196875,26.9789474 5.434375,30.6842105 0.925,38.2105263 C0.925,38.2105263 -2.196875,43.6526316 4.1625,43.6526316 C4.1625,43.6526316 0.809375,43.6526316 3.353125,38.2105263 C5.78125,33.2315789 5.55,30.1052632 3.815625,26.8631579 C2.196875,23.8526316 4.1625,23.5052632 4.278125,23.5052632 L4.39375,23.5052632 C7.8625,23.3894737 13.990625,25.5894737 22.2,38.2105263 C22.2,38.2105263 25.9,43.3052632 29.946875,41.9157895 C33.646875,40.6421053 32.60625,36.9368421 32.60625,36.9368421 L32.60625,36.9368421 Z" id="Shape" fill="#59C6E5"></path>
                        <path d="M14.3375,4.74736842 C14.3375,4.74736842 14.221875,1.27368421 18.26875,4.4 C22.546875,7.87368421 37.578125,33 30.29375,39.7157895 C26.246875,42.7263158 22.2,37.9789474 22.2,37.9789474 C22.2,37.9789474 26.246875,44.5789474 30.525,43.7684211 C30.525,43.7684211 39.3125,43.1894737 34.803125,26.8631579 C31.103125,13.7789474 21.159375,-0.115789474 16.65,0.463157895 C14.915625,0.694736842 14.10625,2.43157895 14.3375,4.74736842 L14.3375,4.74736842 Z" id="Shape" fill="#B9C935"></path>
                    </g>
                </g>
            </g>
        </g>
    </g>
</svg>