<?xml version="1.0" encoding="UTF-8" standalone="no"?>
<svg width="150px" height="44px" viewBox="0 0 150 44" version="1.1" xmlns="http://www.w3.org/2000/svg" xmlns:xlink="http://www.w3.org/1999/xlink">
    <!-- Generator: Sketch 3.6.1 (26313) - http://www.bohemiancoding.com/sketch -->
    <title>logo</title>
    <desc>Created with Sketch.</desc>
    <defs></defs>
    <g id="資源總匯" stroke="none" stroke-width="1" fill="none" fill-rule="evenodd" opacity="0.9">
        <g id="資源總匯---首頁" transform="translate(-90.000000, -18.000000)">
            <g id="Navigation">
                <g id="logo" transform="translate(90.000000, 18.000000)">
                    <path d="M54.056,14.384 L68.12,14.384 L68.12,23.672 C68.12,23.864 68.048,23.936 67.856,23.936 C67.664,23.936 67.16,23.936 66.56,23.912 C66.752,24.248 67.016,24.8 67.112,25.16 C68,25.16 68.648,25.16 69.08,24.92 C69.536,24.68 69.656,24.344 69.656,23.648 L69.656,13.064 L61.136,13.064 C61.424,12.536 61.712,11.96 62,11.336 L60.32,11.096 C60.128,11.624 59.792,12.416 59.504,13.064 L52.568,13.064 L52.568,25.016 L54.056,25.016 L54.056,14.384 Z M61.568,23.912 L61.568,21.392 C63.2,22.232 65.048,23.24 66.08,23.912 L66.776,22.928 C65.552,22.184 63.296,21.008 61.568,20.192 L66.8,20.192 L66.8,19.112 L63.968,19.112 C64.376,18.536 64.808,17.84 65.24,17.024 L64.136,16.64 C63.896,17.264 63.392,18.176 63.008,18.8 L63.752,19.112 L61.568,19.112 L61.568,16.448 C63.368,16.328 65.072,16.16 66.368,15.944 L65.576,14.984 C63.272,15.368 59,15.632 55.592,15.704 C55.736,15.992 55.88,16.376 55.928,16.664 C57.296,16.664 58.808,16.616 60.296,16.544 L60.296,19.112 L58.016,19.112 L58.808,18.776 C58.664,18.248 58.28,17.48 57.848,16.928 L56.84,17.264 C57.224,17.816 57.584,18.536 57.752,19.112 L55.232,19.112 L55.232,20.192 L59.48,20.192 C58.232,21.368 56.384,22.472 54.776,23.024 C55.064,23.264 55.448,23.696 55.664,24.008 C57.176,23.336 59.024,22.136 60.296,20.864 L60.296,23.912 L61.568,23.912 Z M71.624,27.392 L71.624,26.024 L61.4,26.024 C61.52,25.592 61.616,25.112 61.712,24.632 L60.032,24.632 C59.936,25.112 59.84,25.592 59.696,26.024 L50.288,26.024 L50.288,27.392 L59.144,27.392 C57.944,29.6 55.496,30.968 50,31.616 C50.264,31.952 50.624,32.6 50.744,32.96 C56.984,32.12 59.648,30.344 60.92,27.392 L71.624,27.392 Z M61.616,28.64 C64.64,29.96 68.768,31.88 70.856,33.008 L71.648,31.76 C69.488,30.608 65.384,28.808 62.384,27.584 L61.616,28.64 Z M80.56,24.152 L80.56,21.104 L86.128,21.104 L86.128,24.152 L80.56,24.152 Z M93.448,21.104 L93.448,24.152 L87.76,24.152 L87.76,21.104 L93.448,21.104 Z M83.272,14.624 L90.616,14.624 L90.616,16.76 L83.272,16.76 L83.272,14.624 Z M97.624,27.656 L87.76,27.656 L87.76,25.472 L95.104,25.472 L95.104,19.808 L87.76,19.808 L87.76,18.032 L92.224,18.032 L92.224,14.624 L97.216,14.624 L97.216,13.208 L92.224,13.208 L92.224,11.072 L90.616,11.072 L90.616,13.208 L83.272,13.208 L83.272,11.072 L81.712,11.072 L81.712,13.208 L76.72,13.208 L76.72,14.624 L81.712,14.624 L81.712,18.032 L86.128,18.032 L86.128,19.808 L78.976,19.808 L78.976,25.472 L86.128,25.472 L86.128,27.656 L76.288,27.656 L76.288,29.12 L86.128,29.12 L86.128,32.96 L87.76,32.96 L87.76,29.12 L97.624,29.12 L97.624,27.656 Z M114.84,13.472 L119.04,13.472 L119.04,17.552 C119.04,19.232 119.328,19.856 120.792,19.856 L122.424,19.856 C122.832,19.856 123.312,19.832 123.552,19.736 C123.504,19.376 123.456,18.752 123.432,18.368 C123.144,18.416 122.712,18.464 122.4,18.464 L120.888,18.464 C120.552,18.464 120.504,18.248 120.504,17.576 L120.504,11.96 L113.352,11.96 L113.352,14.6 C113.352,16.328 112.92,18.344 110.352,19.856 C110.616,20.096 111.168,20.672 111.384,21.008 C114.216,19.304 114.84,16.76 114.84,14.648 L114.84,13.472 Z M107.904,14.072 C107.52,13.208 106.752,11.96 106.032,11 L104.784,11.624 C105.48,12.608 106.248,13.952 106.608,14.816 L107.904,14.072 Z M111.192,15.176 L102.168,15.176 L102.168,16.496 L111.192,16.496 L111.192,15.176 Z M103.2,22.688 L110.232,22.688 L110.232,21.392 L103.2,21.392 L103.2,22.688 Z M103.2,18.296 L103.2,19.568 L110.208,19.568 L110.208,18.296 L103.2,18.296 Z M108.768,25.928 L108.768,30.128 L104.568,30.128 L104.568,25.928 L108.768,25.928 Z M110.208,31.472 L110.208,24.584 L103.176,24.584 L103.176,32.624 L104.568,32.624 L104.568,31.472 L110.208,31.472 Z M120.48,23.168 C119.664,25.088 118.44,26.672 116.952,27.968 C115.464,26.624 114.288,25.016 113.472,23.168 L120.48,23.168 Z M121.512,21.584 L121.248,21.656 L110.976,21.656 L110.976,23.168 L112.944,23.168 L112.056,23.48 C112.968,25.592 114.192,27.44 115.752,28.928 C114.048,30.152 112.08,31.016 110.088,31.544 C110.4,31.904 110.76,32.552 110.928,32.984 C113.088,32.312 115.152,31.352 116.952,29.984 C118.68,31.304 120.672,32.312 122.976,32.936 C123.192,32.48 123.648,31.832 123.984,31.496 C121.8,30.992 119.856,30.128 118.176,28.952 C120.12,27.2 121.632,24.92 122.544,22.04 L121.512,21.584 Z M134.528,14.072 C134.168,13.232 133.376,11.984 132.68,11.024 L131.456,11.648 C132.104,12.608 132.896,13.952 133.232,14.816 L134.528,14.072 Z M138.416,15.176 L128.576,15.176 L128.576,16.496 L138.416,16.496 L138.416,15.176 Z M137.312,21.392 L129.632,21.392 L129.632,22.688 L137.312,22.688 L137.312,21.392 Z M135.944,25.928 L135.944,30.128 L131.24,30.128 L131.24,25.928 L135.944,25.928 Z M137.384,24.584 L129.824,24.584 L129.824,32.624 L131.24,32.624 L131.24,31.472 L137.384,31.472 L137.384,24.584 Z M129.632,19.568 L137.384,19.568 L137.384,18.296 L129.632,18.296 L129.632,19.568 Z M149.768,19.424 L144.776,19.424 L144.776,11.552 L143.144,11.552 L143.144,19.424 L138.344,19.424 L138.344,20.984 L143.144,20.984 L143.144,32.96 L144.776,32.96 L144.776,20.984 L149.768,20.984 L149.768,19.424 Z" id="奧革設計" fill="#595757"></path>
                    <g id="Group">
                        <path d="M18.26875,4.51578947 C18.615625,4.86315789 17.228125,2.54736842 15.95625,2.31578947 C14.684375,2.2 14.221875,3.58947368 14.453125,4.74736842 C14.684375,5.90526316 18.5,21.1894737 13.18125,33 C13.18125,33 9.94375,40.2947368 5.55,41.4526316 C0.925,42.7263158 3.121875,38.9052632 3.121875,38.9052632 C3.121875,38.9052632 1.271875,40.0631579 1.15625,41.3368421 C1.040625,42.2631579 2.08125,43.4210526 4.278125,43.4210526 C8.209375,43.4210526 20.234375,39.9473684 18.5,13.4315789 C18.384375,11.9263158 18.26875,10.4210526 18.0375,8.8 C17.459375,6.13684211 16.534375,2.77894737 18.26875,4.51578947 L18.26875,4.51578947 Z" id="Shape" fill="#4CA950"></path>
                        <path d="M32.60625,36.9368421 C32.60625,36.9368421 32.259375,37.9789474 30.409375,39.7157895 C29.715625,40.2947368 27.98125,40.4105263 26.246875,38.2105263 C24.628125,36.0105263 15.03125,21.0736842 4.39375,21.4210526 C1.734375,21.5368421 0.4625,23.7368421 1.61875,25.9368421 C2.196875,26.9789474 5.434375,30.6842105 0.925,38.2105263 C0.925,38.2105263 -2.196875,43.6526316 4.1625,43.6526316 C4.1625,43.6526316 0.809375,43.6526316 3.353125,38.2105263 C5.78125,33.2315789 5.55,30.1052632 3.815625,26.8631579 C2.196875,23.8526316 4.1625,23.5052632 4.278125,23.5052632 L4.39375,23.5052632 C7.8625,23.3894737 13.990625,25.5894737 22.2,38.2105263 C22.2,38.2105263 25.9,43.3052632 29.946875,41.9157895 C33.646875,40.6421053 32.60625,36.9368421 32.60625,36.9368421 L32.60625,36.9368421 Z" id="Shape" fill="#59C6E5"></path>
                        <path d="M14.3375,4.74736842 C14.3375,4.74736842 14.221875,1.27368421 18.26875,4.4 C22.546875,7.87368421 37.578125,33 30.29375,39.7157895 C26.246875,42.7263158 22.2,37.9789474 22.2,37.9789474 C22.2,37.9789474 26.246875,44.5789474 30.525,43.7684211 C30.525,43.7684211 39.3125,43.1894737 34.803125,26.8631579 C31.103125,13.7789474 21.159375,-0.115789474 16.65,0.463157895 C14.915625,0.694736842 14.10625,2.43157895 14.3375,4.74736842 L14.3375,4.74736842 Z" id="Shape" fill="#B9C935"></path>
                    </g>
                </g>
            </g>
        </g>
    </g>
</svg>