<?xml version="1.0" encoding="UTF-8" standalone="no"?>
<svg width="154px" height="44px" viewBox="0 0 154 44" version="1.1" xmlns="http://www.w3.org/2000/svg" xmlns:xlink="http://www.w3.org/1999/xlink">
    <!-- Generator: Sketch 3.6.1 (26313) - http://www.bohemiancoding.com/sketch -->
    <title>logo</title>
    <desc>Created with Sketch.</desc>
    <defs></defs>
    <g id="資源總匯" stroke="none" stroke-width="1" fill="none" fill-rule="evenodd" opacity="0.9">
        <g id="資源總匯---首頁" transform="translate(-90.000000, -18.000000)">
            <g id="Navigation">
                <g id="logo" transform="translate(90.000000, 18.000000)">
                    <g transform="translate(53.000000, 10.000000)" fill="#686868">
                        <path d="M11.8511411,18.8178986 L20.3752312,18.8178986 C20.7754233,18.8178986 21.0555577,18.5383935 21.0555577,18.0592421 C21.0155385,17.6200199 20.7754233,17.3405149 20.3752312,17.3005856 L11.6110259,17.3005856 L11.6110259,16.8214341 C11.5710067,16.4221412 11.2908723,16.1426362 10.850661,16.0627776 L10.8106418,16.0627776 L10.7706226,16.0627776 C10.3704306,16.1426362 10.1303154,16.3822119 10.0902962,16.8214341 L10.0902962,17.2606563 L1.12599483,17.2606563 C0.685783606,17.3005856 0.445668391,17.5800906 0.445668391,18.0193128 C0.445668391,18.4984643 0.685783606,18.7779693 1.12599483,18.7779693 L9.81016178,18.7779693 C9.81016178,18.7779693 8.48952809,20.5747873 6.16841435,21.5330903 C3.8473006,22.4913932 2.44662852,22.8906861 1.48616766,23.0903326 C0.525706796,23.289979 0.0454763665,23.569484 0.0454763665,24.1684234 C0.0454763665,24.7673627 0.605745201,24.9670092 1.36611005,24.7673627 C2.1264749,24.5677163 6.36851036,23.5295547 8.88972012,21.6528781 C9.69010417,21.0938681 10.2903922,20.4949287 10.7306034,19.9359187 C10.7306034,19.9359187 11.9711987,21.8125953 14.4123701,22.8108275 C16.8535414,23.8090598 19.534828,24.807292 20.0550776,24.8472213 C20.5753272,24.8871506 20.8954809,24.8472213 21.0555577,24.3680698 C21.2156345,23.8889184 21.0555577,23.4896255 20.6153465,23.3299083 C20.1751352,23.2101204 16.4133302,22.2518175 14.8525813,21.3334438 C13.2918324,20.4150702 12.7315636,20.0956358 11.8511411,18.8178986 L11.8511411,18.8178986 Z" id="Shape"></path>
                        <path d="M8.96975852,3.16561706 L17.3337718,3.16561706 C18.6544055,3.16561706 19.3747512,3.96420285 19.3747512,5.40165728 L19.3747512,17.8595956 C19.3747512,18.4984643 18.9345399,18.6182521 18.6944247,18.6182521 C18.0541175,18.6182521 17.8940407,18.2189592 17.8940407,17.8595956 L17.8940407,5.60130372 C17.8940407,4.96243509 17.6139063,4.68293006 17.0536374,4.68293006 L4.48760784,4.68293006 C3.92733901,4.68293006 3.64720459,4.96243509 3.64720459,5.60130372 L3.64720459,17.8595956 C3.64720459,18.1391007 3.52714698,18.6182521 2.84682054,18.6182521 C2.40660931,18.6182521 2.1664941,18.3786764 2.1664941,17.8595956 L2.1664941,5.40165728 C2.1664941,3.52498067 3.28703177,3.16561706 4.20747343,3.16561706 L7.24893282,3.16561706 C7.24893282,3.16561706 7.76918245,2.36703127 8.04931687,1.64830405 C8.32945128,0.929576842 8.6496049,0.729930394 9.12983533,0.929576842 C9.61006576,1.12922329 9.65008497,1.52851619 9.57004656,1.76809192 C9.49000816,2.00766766 9.16985454,2.84618274 8.96975852,3.16561706 L8.96975852,3.16561706 Z" id="Shape"></path>
                        <path d="M7.64912484,14.5055353 C8.5295473,13.8666667 9.28991214,13.3076566 9.97023859,12.668788 L9.97023859,14.9048282 C9.97023859,14.9048282 10.0102578,15.6634847 10.6105458,15.6634847 C11.2108339,15.6634847 11.3709107,15.1044746 11.3709107,14.9048282 L11.3709107,12.5090708 C11.3709107,12.5090708 13.211794,14.2659596 14.7725429,15.0246161 C16.3332918,15.7832726 16.773503,16.0627776 17.2537334,15.6235554 C17.6939447,15.1843332 17.2937526,14.465606 16.973599,14.3058889 C15.5329077,13.7069495 14.7725429,13.3875152 13.9721588,12.7885758 C13.211794,12.3094244 12.4914483,11.7504143 11.8511411,11.151475 L16.6134262,11.151475 C16.8135222,11.151475 17.2137142,11.0716164 17.2137142,10.4327478 C17.2137142,9.79387913 16.6134262,9.75394984 16.6134262,9.75394984 L11.4109299,9.75394984 L11.4109299,7.2384046 C12.9316596,7.11861673 14.4123701,6.99882886 15.8530614,6.79918241 C15.8530614,6.79918241 16.573407,6.79918241 16.573407,6.12038449 C16.573407,5.28186941 15.8530614,5.40165728 15.8530614,5.40165728 C12.4914483,5.84087946 8.88972012,6.12038449 5.12791508,6.20024307 C5.12791508,6.20024307 4.44758864,6.32003094 4.44758864,6.87904099 C4.44758864,7.43805104 4.96783827,7.63769749 5.12791508,7.63769749 C6.76870239,7.5977682 8.28943208,7.51790962 10.0102578,7.39812175 L10.0102578,9.83380842 L5.20795349,9.83380842 C4.80776146,9.87373771 4.60766545,10.1532427 4.60766545,10.5924649 C4.60766545,10.9917578 4.84778067,11.2313336 5.24797269,11.2712628 L9.65008497,11.2712628 C8.76966251,12.1497072 7.92925926,12.8285051 7.08885601,13.3475859 C6.16841435,13.906596 5.76822232,14.2659596 4.64768465,14.6652525 C4.32753103,14.745111 4.16745422,14.9846868 4.16745422,15.423909 C4.16745422,15.423909 4.16745422,16.2224948 4.88779987,16.1426362 C5.60814551,16.0627776 7.0488368,14.9447575 7.64912484,14.5055353 L7.64912484,14.5055353 Z" id="Shape"></path>
                        <path d="M7.60910564,7.51790962 C7.88924006,7.71755607 8.28943208,8.39635399 8.5295473,8.71578831 C8.5295473,8.71578831 9.08981613,9.63416197 7.92925926,9.87373771 C7.68914404,9.87373771 7.52906723,9.63416197 7.32897122,9.39458623 C7.0088176,8.91543476 6.68866398,8.59600044 6.56860637,8.43628328 C6.44854877,8.15677826 6.40852956,8.03699039 6.40852956,7.91720252 C6.40852956,7.79741465 6.64864478,6.75925312 7.60910564,7.51790962 L7.60910564,7.51790962 Z" id="Shape"></path>
                        <path d="M37.0816386,25.2065849 C36.6014082,25.1666556 36.2812546,24.8871506 36.2812546,24.4479284 L36.2812546,20.6945752 L27.3569724,20.6945752 C26.9167612,20.6945752 26.6366268,20.4150702 26.6366268,19.9359187 C26.6366268,19.4567672 26.876742,19.1772622 27.3569724,19.1772622 L36.2812546,19.1772622 L36.2812546,17.220727 L30.3183934,17.220727 C29.0777981,17.220727 28.4374909,16.5419291 28.4374909,15.1843332 L28.4374909,12.5889294 C28.4374909,10.9118992 29.4779901,10.5525356 30.3183934,10.5525356 L36.2812546,10.5525356 L36.2812546,8.47621257 L32.5594687,8.47621257 C31.6790463,8.47621257 30.5985278,8.11684897 30.5985278,6.32003094 L30.5985278,4.68293006 L29.1578365,4.68293006 C28.7176253,4.68293006 28.4374909,4.40342504 28.4374909,3.92427356 C28.4374909,3.44512209 28.7176253,3.16561706 29.1578365,3.16561706 L30.5985278,3.16561706 L30.5985278,1.60837477 C30.5985278,0.849718263 31.0787582,0.769859684 31.3989119,0.769859684 C31.6790463,0.769859684 32.1192575,0.889647553 32.1192575,1.60837477 L32.1192575,3.16561706 L41.7638853,3.16561706 L41.7638853,1.60837477 C41.7638853,0.849718263 42.2040965,0.769859684 42.484231,0.769859684 C42.7643654,0.769859684 43.284615,0.889647553 43.284615,1.60837477 L43.284615,3.16561706 L44.9254023,3.16561706 C45.3255943,3.16561706 45.5657095,3.4051928 45.6457479,3.88434427 L45.6457479,3.92427356 L45.6457479,3.96420285 C45.6057287,4.40342504 45.3255943,4.68293006 44.9254023,4.68293006 L43.284615,4.68293006 L43.284615,6.32003094 C43.284615,8.11684897 42.2040965,8.47621257 41.3236741,8.47621257 L37.8019843,8.47621257 L37.8019843,10.5525356 L43.7648454,10.5525356 C44.6052487,10.5525356 45.6457479,10.9118992 45.6457479,12.5889294 L45.6457479,15.1843332 C45.6457479,16.8613634 44.6452679,17.220727 43.7648454,17.220727 L37.8019843,17.220727 L37.8019843,19.1772622 L46.8063048,19.1772622 C47.2064968,19.2171915 47.4866313,19.4966965 47.5266505,19.9359187 L47.5266505,19.975848 L47.5266505,20.0157773 C47.4866313,20.4549994 47.2064968,20.7345045 46.8063048,20.7345045 L37.8019843,20.7345045 L37.8019843,24.4878577 C37.7219459,25.086797 37.4017922,25.2065849 37.1216578,25.2465142 L37.0816386,25.2065849 L37.0816386,25.2065849 L37.0816386,25.2065849 Z M43.5647494,15.703414 C43.8048646,15.703414 44.1250183,15.6235554 44.1250183,15.0645454 L44.1250183,12.668788 C44.1250183,12.0299193 43.7248262,12.0299193 43.5647494,12.0299193 L37.7619651,12.0299193 L37.7619651,15.6634847 L43.5647494,15.6634847 L43.5647494,15.703414 Z M30.5184894,12.0299193 C30.2783742,12.0299193 29.9582206,12.1097779 29.9582206,12.668788 L29.9582206,15.0645454 C29.9582206,15.5836261 30.1983358,15.703414 30.5184894,15.703414 L36.3212738,15.703414 L36.3212738,12.0698486 L30.5184894,12.0698486 L30.5184894,12.0299193 Z M32.1192575,6.0804552 C32.1192575,6.63946525 32.3593727,6.91897028 32.8396031,6.91897028 L41.0435397,6.91897028 C41.5637893,6.91897028 41.7638853,6.67939454 41.7638853,6.0804552 L41.7638853,4.64300077 L32.1192575,4.64300077 L32.1192575,6.0804552 L32.1192575,6.0804552 Z" id="Shape"></path>
                        <path d="M95.3863973,24.7673627 C94.9061669,24.7274334 94.6260325,24.4479284 94.6260325,24.0087062 L94.6260325,9.95359629 L90.183901,9.95359629 C89.7036706,9.913667 89.4635554,9.63416197 89.4635554,9.19493979 C89.4635554,8.7557176 89.7036706,8.47621257 90.183901,8.43628328 L94.6260325,8.43628328 L94.6260325,1.60837477 C94.6260325,1.16915258 94.9061669,0.889647553 95.3863973,0.849718263 L95.4264165,0.849718263 L95.4664357,0.849718263 C95.8266085,0.889647553 96.106743,1.12922329 96.1467622,1.56844548 L96.1467622,8.39635399 L100.188702,8.39635399 C100.428817,8.39635399 100.829009,8.51614186 100.909047,9.11508121 L100.909047,9.1550105 L100.909047,9.19493979 C100.869028,9.63416197 100.588894,9.87373771 100.188702,9.913667 L96.106743,9.913667 L96.106743,23.9687769 C96.0267046,24.5677163 95.6265125,24.6875041 95.4264165,24.7274334 L95.3863973,24.7673627 L95.3863973,24.7673627 L95.3863973,24.7673627 Z M82.1400413,24.807292 C81.2596188,24.807292 80.1791004,24.4479284 80.1791004,22.6511104 L80.1791004,17.220727 C80.1791004,15.423909 81.2596188,15.0645454 82.1400413,15.0645454 L86.7422496,15.0645454 C87.622672,15.0645454 88.7031905,15.423909 88.7031905,17.220727 L88.7031905,22.6511104 C88.7031905,24.4479284 87.622672,24.807292 86.7422496,24.807292 L82.1400413,24.807292 L82.1400413,24.807292 Z M82.3801565,16.6217876 C81.8599069,16.6217876 81.6598109,16.8613634 81.6598109,17.4603027 L81.6598109,22.4913932 C81.6598109,23.0504033 81.8999261,23.3299083 82.3801565,23.3299083 L86.422096,23.3299083 C86.9423456,23.3299083 87.1424416,23.0903326 87.1424416,22.4913932 L87.1424416,17.4603027 C87.1424416,16.9012927 86.9023264,16.6217876 86.422096,16.6217876 L82.3801565,16.6217876 L82.3801565,16.6217876 Z M81.0595228,13.1080102 C80.6193116,13.1080102 80.3391772,12.8285051 80.3391772,12.3493537 C80.3391772,11.9101315 80.5792924,11.6306265 81.0595228,11.5906972 L87.822768,11.5906972 C88.2629793,11.6306265 88.5030945,11.9101315 88.5030945,12.3493537 C88.4630753,12.8285051 88.2229601,13.1080102 87.822768,13.1080102 L81.0595228,13.1080102 L81.0595228,13.1080102 Z M81.0595228,9.913667 C80.6193116,9.913667 80.3391772,9.63416197 80.3391772,9.1550105 C80.3391772,8.71578831 80.5792924,8.43628328 81.0595228,8.39635399 L87.822768,8.39635399 C88.2629793,8.43628328 88.5030945,8.71578831 88.5030945,9.1550105 C88.4630753,9.63416197 88.2229601,9.913667 87.822768,9.913667 L81.0595228,9.913667 L81.0595228,9.913667 Z M80.0590428,6.67939454 C79.5788123,6.63946525 79.3386971,6.35996023 79.3386971,5.92073804 C79.3386971,5.48151585 79.5788123,5.20201083 80.0590428,5.16208154 L88.8232481,5.16208154 C89.2634593,5.20201083 89.5035746,5.48151585 89.5035746,5.92073804 C89.4635554,6.39988951 89.2234401,6.67939454 88.8232481,6.71932383 L88.8232481,6.71932383 L80.0590428,6.71932383 L80.0590428,6.67939454 Z M81.2596188,3.36526351 C80.7793884,3.32533422 80.5392732,3.04582919 80.5392732,2.606607 C80.5392732,2.16738482 80.7793884,1.88787979 81.2596188,1.8479505 L87.6626912,1.8479505 C88.1029025,1.88787979 88.3430177,2.16738482 88.3430177,2.606607 C88.3029985,3.08575848 88.0628833,3.36526351 87.6626912,3.4051928 L87.6626912,3.4051928 L81.2596188,3.4051928 L81.2596188,3.36526351 Z" id="Shape"></path>
                        <path d="M12.9316596,8.63592973 C13.0917364,8.47621257 13.7320436,7.51790962 13.812082,7.27833389 C13.8921204,7.03875815 14.4523893,6.67939454 14.8525813,6.95889957 C15.2527733,7.2384046 15.2127541,7.5977682 15.1727349,7.75748536 C15.1327157,7.91720252 14.6524853,8.7557176 14.2923125,9.19493979 C13.9321396,9.63416197 13.6920244,9.95359629 13.2918324,9.913667 C12.8916404,9.87373771 12.4914483,9.11508121 12.9316596,8.63592973 L12.9316596,8.63592973 Z" id="Shape"></path>
                        <g id="Group-2" transform="translate(52.816514, 1.857143)">
                            <path d="M2.69235794,22.7505027 C1.81193548,22.7505027 0.731417014,22.3911391 0.731417014,20.5943211 L0.731417014,15.6031599 C0.731417014,13.8063418 1.81193548,13.4469782 2.69235794,13.4469782 L6.01395174,13.4469782 C6.9343934,13.4469782 8.01491187,13.8063418 8.01491187,15.6031599 L8.01491187,20.5943211 C8.01491187,22.3911391 6.9343934,22.7505027 6.01395174,22.7505027 L2.69235794,22.7505027 L2.69235794,22.7505027 Z M2.97249235,14.9642912 C2.45224272,14.9642912 2.25214671,15.203867 2.25214671,15.8028063 L2.25214671,20.3946746 C2.25214671,20.9536847 2.49226192,21.2331897 2.97249235,21.2331897 L5.77383653,21.2331897 C6.29408616,21.2331897 6.49418217,20.993614 6.49418217,20.3946746 L6.49418217,15.8028063 C6.49418217,15.2437963 6.25406696,14.9642912 5.77383653,14.9642912 L2.97249235,14.9642912 L2.97249235,14.9642912 Z" id="Shape"></path>
                            <path d="M1.49178186,11.5703016 C1.05157063,11.5703016 0.811455419,11.2907966 0.811455419,10.8116451 C0.811455419,10.3324936 1.05157063,10.0529886 1.49178186,10.0529886 L7.09447021,10.0529886 C7.49466224,10.0929179 7.77479665,10.3724229 7.81481586,10.8116451 L7.81481586,10.8515744 L7.81481586,10.8915037 C7.77479665,11.3307259 7.49466224,11.6102309 7.09447021,11.6102309 L1.49178186,11.6102309 L1.49178186,11.5703016 Z" id="Shape"></path>
                            <path d="M1.49178186,8.17631201 C1.05157063,8.17631201 0.811455419,7.89680698 0.811455419,7.41765551 C0.811455419,6.93850403 1.05157063,6.65899901 1.49178186,6.65899901 L7.09447021,6.65899901 C7.49466224,6.6989283 7.73477745,6.97843332 7.81481586,7.41765551 L7.81481586,7.4575848 L7.81481586,7.49751409 C7.77479665,7.93673627 7.49466224,8.2162413 7.09447021,8.2162413 L1.49178186,8.2162413 L1.49178186,8.17631201 Z" id="Shape"></path>
                            <path d="M0.771436216,4.82225168 C0.291205786,4.7823224 0.0510905711,4.50281737 0.0510905711,4.06359518 C0.0510905711,3.624373 0.291205786,3.34486797 0.771436216,3.30493868 L7.89485426,3.30493868 C8.29504629,3.34486797 8.5351615,3.58444371 8.61519991,4.02366589 L8.61519991,4.06359518 L8.61519991,4.10352447 C8.5751807,4.54274666 8.29504629,4.7823224 7.93487346,4.82225168 L7.93487346,4.82225168 L0.771436216,4.82225168 L0.771436216,4.82225168 Z" id="Shape"></path>
                            <path d="M1.61183947,1.62790852 C1.17162824,1.58797923 0.931513026,1.3084742 0.931513026,0.869252016 C0.931513026,0.430029831 1.17162824,0.150524804 1.61183947,0.110595514 L6.9343934,0.110595514 C7.17450862,0.110595514 7.57470064,0.230383383 7.65473905,0.829322727 L7.65473905,0.869252016 L7.65473905,0.909181306 C7.61471984,1.34840349 7.33458543,1.58797923 6.9744126,1.62790852 L6.9744126,1.62790852 L1.61183947,1.62790852 L1.61183947,1.62790852 Z" id="Shape"></path>
                            <path d="M8.4551231,9.61376643 C8.61519991,9.89327146 9.09543034,10.0529886 9.37556475,9.89327146 C9.65569917,9.7335543 10.816256,8.77525135 11.3765249,7.73708982 C11.9367937,6.6989283 12.3369857,5.26147387 12.3369857,4.02366589 C12.3770049,2.78585792 12.4170241,2.30670644 12.4170241,2.14698928 C12.4170241,1.98727212 12.5370818,1.58797923 13.0973506,1.58797923 L16.0987908,1.58797923 C16.3789252,1.58797923 16.6990788,1.74769639 16.6990788,2.0671307 L16.6990788,7.41765551 C16.6990788,7.77701911 16.739098,9.3741907 18.5799813,9.3741907 C20.4208646,9.3741907 20.7410183,9.49397857 21.1011911,8.53567562 C21.4613639,7.57737267 21.6214407,5.34133245 21.5814215,4.94203955 C21.5814215,4.94203955 21.5013831,4.18338305 20.8210567,4.18338305 C20.1407302,4.18338305 20.1407302,4.58267595 20.100711,4.82225168 C20.0606918,5.06182742 19.9406342,6.6989283 19.8605958,7.0582919 C19.7805574,7.41765551 19.6604998,7.8169484 19.2603078,7.8169484 L18.5799813,7.8169484 C18.4999429,7.8169484 18.1797893,7.8169484 18.1797893,7.13815048 L18.1797893,1.90741355 C18.1797893,1.62790852 18.0197125,0.909181306 17.6995589,0.589746989 C17.3794053,0.270312673 17.0192324,0.0706662247 16.2188484,0.0706662247 L12.7371778,0.0706662247 C12.3770049,0.0706662247 11.7767169,0.190454093 11.4565633,0.50988841 C11.1364097,0.829322727 10.8962944,1.34840349 10.8962944,1.94734284 C10.8962944,2.54628218 10.816256,4.82225168 10.6961984,5.30140316 C10.5761408,5.78055463 10.1759488,6.93850403 9.53564156,7.57737267 C8.89533432,8.2162413 8.61519991,8.37595846 8.5351615,8.49574633 C8.4551231,8.6155342 8.17498868,9.05475638 8.4551231,9.61376643 L8.4551231,9.61376643 Z" id="Shape"></path>
                            <path d="M14.7781571,19.7957353 C13.5375618,20.6342504 11.8967745,21.5925533 9.85579518,22.6307148 C8.5351615,23.1098663 8.5351615,21.8720583 8.5351615,21.8720583 C8.5751807,21.552624 8.69523831,21.3529776 8.97537273,21.2331897 C11.1764289,20.1950282 12.6571394,19.3964424 13.5375618,18.797503 C12.9372738,18.3183516 12.4570433,17.7992708 12.0568513,17.3201193 C11.6166401,16.7611093 11.1764289,16.1621699 10.816256,15.483372 C10.3360256,14.8045741 9.93583359,14.0459176 9.61567997,13.3271904 C9.37556475,12.6883217 9.25550715,12.2490995 9.25550715,11.9695945 C9.25550715,11.5703016 9.33554555,11.210938 9.53564156,10.931433 C9.77575678,10.5321401 10.1759488,10.2925644 10.7362176,10.2526351 L18.9001349,10.2526351 C19.6204806,10.2526351 20.500903,10.5720694 20.500903,12.0095238 C20.500903,12.2890288 20.3808454,12.728251 20.1407302,13.3671197 C19.6604998,14.4452105 19.0201926,15.5233013 18.2198085,16.4816042 C17.5795013,17.28019 16.8591556,18.0388465 16.0187524,18.7575737 C16.0587716,18.797503 16.0987908,18.797503 16.0987908,18.797503 C17.0592516,19.4363717 19.0201926,20.3547453 21.0611719,21.0734725 C21.5414023,21.2331897 21.7014791,21.8720583 21.5414023,22.2314219 C21.3813255,22.5907855 20.9811335,22.7105734 20.8210567,22.7105734 C20.6609799,22.6706441 20.2207686,22.5508563 20.2207686,22.5508563 C17.9396741,21.9918462 14.7781571,19.7957353 14.7781571,19.7957353 L14.7781571,19.7957353 Z M14.8181763,17.8392001 C15.6985987,17.1204729 16.4189444,16.4017457 16.9792132,15.7229477 C17.6995589,14.8045741 18.2598277,13.966059 18.7000389,13.0476853 C18.8200965,12.6883217 18.9001349,12.4088167 18.9001349,12.169241 C18.9001349,11.8098774 18.7000389,11.7300188 18.5399621,11.7300188 L11.0963905,11.7300188 C10.9763329,11.7699481 10.816256,11.8498067 10.8562752,12.1293117 C10.8562752,12.3289581 10.9363137,12.8081096 11.2564673,13.3671197 C11.5766209,13.9261297 13.177389,16.6812507 14.8181763,17.8392001 L14.8181763,17.8392001 Z" id="Shape"></path>
                        </g>
                    </g>
                    <g id="Group">
                        <path d="M18.26875,4.51578947 C18.615625,4.86315789 17.228125,2.54736842 15.95625,2.31578947 C14.684375,2.2 14.221875,3.58947368 14.453125,4.74736842 C14.684375,5.90526316 18.5,21.1894737 13.18125,33 C13.18125,33 9.94375,40.2947368 5.55,41.4526316 C0.925,42.7263158 3.121875,38.9052632 3.121875,38.9052632 C3.121875,38.9052632 1.271875,40.0631579 1.15625,41.3368421 C1.040625,42.2631579 2.08125,43.4210526 4.278125,43.4210526 C8.209375,43.4210526 20.234375,39.9473684 18.5,13.4315789 C18.384375,11.9263158 18.26875,10.4210526 18.0375,8.8 C17.459375,6.13684211 16.534375,2.77894737 18.26875,4.51578947 L18.26875,4.51578947 Z" id="Shape" fill="#4CA950"></path>
                        <path d="M32.60625,36.9368421 C32.60625,36.9368421 32.259375,37.9789474 30.409375,39.7157895 C29.715625,40.2947368 27.98125,40.4105263 26.246875,38.2105263 C24.628125,36.0105263 15.03125,21.0736842 4.39375,21.4210526 C1.734375,21.5368421 0.4625,23.7368421 1.61875,25.9368421 C2.196875,26.9789474 5.434375,30.6842105 0.925,38.2105263 C0.925,38.2105263 -2.196875,43.6526316 4.1625,43.6526316 C4.1625,43.6526316 0.809375,43.6526316 3.353125,38.2105263 C5.78125,33.2315789 5.55,30.1052632 3.815625,26.8631579 C2.196875,23.8526316 4.1625,23.5052632 4.278125,23.5052632 L4.39375,23.5052632 C7.8625,23.3894737 13.990625,25.5894737 22.2,38.2105263 C22.2,38.2105263 25.9,43.3052632 29.946875,41.9157895 C33.646875,40.6421053 32.60625,36.9368421 32.60625,36.9368421 L32.60625,36.9368421 Z" id="Shape" fill="#59C6E5"></path>
                        <path d="M14.3375,4.74736842 C14.3375,4.74736842 14.221875,1.27368421 18.26875,4.4 C22.546875,7.87368421 37.578125,33 30.29375,39.7157895 C26.246875,42.7263158 22.2,37.9789474 22.2,37.9789474 C22.2,37.9789474 26.246875,44.5789474 30.525,43.7684211 C30.525,43.7684211 39.3125,43.1894737 34.803125,26.8631579 C31.103125,13.7789474 21.159375,-0.115789474 16.65,0.463157895 C14.915625,0.694736842 14.10625,2.43157895 14.3375,4.74736842 L14.3375,4.74736842 Z" id="Shape" fill="#B9C935"></path>
                    </g>
                </g>
            </g>
        </g>
    </g>
</svg>