<?xml version="1.0" encoding="UTF-8" standalone="no"?>
<svg width="144px" height="44px" viewBox="0 0 144 44" version="1.1" xmlns="http://www.w3.org/2000/svg" xmlns:xlink="http://www.w3.org/1999/xlink">
    <!-- Generator: Sketch 3.6.1 (26313) - http://www.bohemiancoding.com/sketch -->
    <title>logo-white</title>
    <desc>Created with Sketch.</desc>
    <defs></defs>
    <g id="官網" stroke="none" stroke-width="1" fill="none" fill-rule="evenodd">
        <g id="首頁" transform="translate(-105.000000, -2049.000000)" fill="#FFFFFF">
            <g id="Footer" transform="translate(0.000000, 1980.000000)">
                <g id="Footers" transform="translate(0.000000, 0.245214)">
                    <g id="Group-8" transform="translate(100.000000, 68.000000)">
                        <g id="logo-white" transform="translate(5.000000, 0.754786)">
                            <text id="奧革設計" font-family="PingFangTC-Light, PingFang TC" font-size="24" font-weight="300">
                                <tspan x="49" y="32">奧革設計</tspan>
                            </text>
                            <path d="M34.6591712,26.7874738 C30.9418617,13.5579259 20.9611402,-0.598205103 16.48,0.0195169769 C13.6792874,0.379854857 14.2394299,4.24061786 14.2394299,4.34357154 C14.392196,5.27015466 16.7855323,14.8963237 15.3087929,24.7284002 C16.1744677,25.3975991 17.0401425,26.1182749 17.8039733,26.8904275 C18.4150378,23.184095 18.9751804,14.5874627 17.3965969,6.66002934 C16.5309221,2.13006742 17.9567394,3.93175682 18.1095055,4.08618734 C22.3360355,7.6380893 37.3580398,32.8102641 30.228953,39.7081606 C29.5160443,40.3258827 27.7846947,40.3258827 26.1042671,38.1123786 C24.4238395,35.8988745 14.8504945,20.8161603 4.15686435,21.1764982 C1.61076194,21.2794519 0.286788691,23.3900023 1.25430761,25.3975991 C1.81445014,26.6330433 5.32807146,30.5452831 0.745087124,38.1638554 C0.745087124,38.1638554 -2.31023577,43.6718773 3.95317616,43.6718773 L3.95317616,43.6718773 L4.00409821,43.6718773 C6.75388881,43.6718773 13.3737551,41.9731416 16.5818441,31.9351578 C15.7670913,30.9570978 15.0032606,30.1334684 14.2394299,29.4127926 C13.0173007,33.5824167 9.6055235,40.4803132 5.22622736,41.7157574 C2.98565724,42.3849563 2.32367062,41.7672342 2.27274857,40.9436048 C2.42551471,39.8625912 3.03657929,38.5241933 3.18934544,38.1638554 C5.5826817,33.0676483 5.37899351,29.9790379 3.59672182,26.6330433 C1.91629423,23.4414792 4.15686435,23.2355718 4.2077864,23.2355718 C7.67048567,23.184095 13.7811315,25.3975991 22.0814253,38.1123786 C22.0814253,38.1123786 26.1551892,44.752891 30.3817192,43.9292615 C30.4326412,43.8777847 39.2930776,43.2600626 34.6591712,26.7874738 L34.6591712,26.7874738 Z" id="Shape"></path>
                        </g>
                    </g>
                </g>
            </g>
        </g>
    </g>
</svg>