<?xml version="1.0" encoding="UTF-8" standalone="no"?>
<svg width="131px" height="94px" viewBox="0 0 131 94" version="1.1" xmlns="http://www.w3.org/2000/svg" xmlns:xlink="http://www.w3.org/1999/xlink">
    <!-- Generator: Sketch 3.6.1 (26313) - http://www.bohemiancoding.com/sketch -->
    <title>1</title>
    <desc>Created with Sketch.</desc>
    <defs></defs>
    <g id="官網" stroke="none" stroke-width="1" fill="none" fill-rule="evenodd">
        <g id="首頁" transform="translate(-174.000000, -852.000000)">
            <g id="服務項目" transform="translate(0.000000, 600.000000)">
                <g id="1" transform="translate(160.000000, 219.000000)">
                    <rect id="Rectangle-11" stroke="#FFFFFF" fill="#FFFFFF" opacity="0" x="0" y="0" width="160" height="160"></rect>
                    <g transform="translate(15.360000, 33.920000)" id="Page-1">
                        <g>
                            <g>
                                <g id="1" transform="translate(0.000000, 0.000000)">
                                    <g id="Group">
                                        <g id="Page-1">
                                            <g id="Group" transform="translate(0.000000, 0.000000)">
                                                <g id="computer" transform="translate(0.000000, 0.000000)">
                                                    <path d="M100.41165,63.7538893 L0,63.7538893 L0,0.630601644 L100.41165,0.630601644 L100.41165,63.7538893 L100.41165,63.7538893 L100.41165,63.7538893 Z" id="Fill-1" fill="#F7F7F7"></path>
                                                    <path d="M0,63.7538893 L0,0.630601644 L100.41165,0.630601644 L100.41165,63.7538893 L0,63.7538893 Z" id="Stroke-2" stroke="#545E65" stroke-width="2"></path>
                                                    <path d="M51.1471845,58.3881574 L49.264466,60.281856" id="Stroke-4" stroke="#545E65" stroke-width="0.64"></path>
                                                    <path d="M40.792233,74.4840276 L40.792233,66.2792627" id="Stroke-5" stroke="#545E65" stroke-width="1.28"></path>
                                                    <path d="M59.6194175,66.2790733 L59.6194175,74.4838382" id="Stroke-6" stroke="#545E65" stroke-width="1.28"></path>
                                                    <path d="M63.3856075,75.7466827 L37.0269216,75.7466827" id="Stroke-7" stroke="#545E65" stroke-width="1.28"></path>
                                                    <path d="M99.1558773,3.78739726 L3.13786408,3.78739726 L3.13786408,56.1784636 L99.1558773,56.1784636 L99.1558773,3.78739726 L99.1558773,3.78739726 L99.1558773,3.78739726 Z" id="Fill-8" fill="#59C6E5" opacity="0.3"></path>
                                                    <path d="M99.1565049,55.8634784 L3.13786408,55.8634784" id="Stroke-9" stroke="#545E65" stroke-width="0.64"></path>
                                                </g>
                                                <g id="Group-14" transform="translate(84.722330, 22.093151)" fill="#F7F7F7">
                                                    <path d="M5.64972427,57.4409293 C2.53508039,57.4409293 0.00156893204,54.892011 0.00156893204,51.7598334 L0.00156893204,6.3110663 C0.00156893204,3.17888877 2.53508039,0.629970411 5.64972427,0.629970411 L38.2835107,0.629970411 C41.3981546,0.629970411 43.931666,3.17888877 43.931666,6.3110663 L43.931666,51.7598334 C43.931666,54.892011 41.3981546,57.4409293 38.2835107,57.4409293 L5.64972427,57.4409293 L5.64972427,57.4409293 L5.64972427,57.4409293 Z" id="Fill-12"></path>
                                                </g>
                                                <path d="M74.681165,92.16 C71.5665212,92.16 69.0330097,89.6110816 69.0330097,86.4789041 L69.0330097,56.1809885 C69.0330097,53.048811 71.5665212,50.4998926 74.681165,50.4998926 L88.4858843,50.4998926 C91.6005282,50.4998926 94.1340396,53.048811 94.1340396,56.1809885 L94.1340396,86.4789041 C94.1340396,89.6110816 91.6005282,92.16 88.4858843,92.16 L74.681165,92.16 L74.681165,92.16 L74.681165,92.16 Z" id="Fill-15" fill="#F7F7F7"></path>
                                                <path d="M90.3722426,76.3778525 C88.9859343,76.3778525 87.8619514,75.2473144 87.8619514,73.852921 L87.8619514,28.4041539 C87.8619514,27.0097604 88.9859343,25.8792224 90.3722426,25.8792224 L123.006029,25.8792224 C124.392337,25.8792224 125.51632,27.0097604 125.51632,28.4041539 L125.51632,73.852921 C125.51632,75.2473144 124.392337,76.3778525 123.006029,76.3778525 L90.3722426,76.3778525 Z" id="Stroke-17" stroke="#545E65" stroke-width="1.5"></path>
                                                <path d="M89.7429126,32.1916142 L124.88699,32.1916142 L124.88699,70.0643244 L89.7429126,70.0643244 L89.7429126,32.1916142 L89.7429126,32.1916142 L89.7429126,32.1916142 Z" id="Fill-19" fill="#4CA950" opacity="0.3"></path>
                                                <path d="M124.888685,70.3799408 L89.7446071,70.3799408" id="Stroke-21" stroke="#545E65" stroke-width="0.64"></path>
                                                <path d="M124.888685,31.8747353 L89.7446071,31.8747353" id="Stroke-22" stroke="#545E65" stroke-width="0.64"></path>
                                                <path d="M105.747777,74.170873 L107.630495,72.2771744" id="Stroke-23" stroke="#545E65" stroke-width="0.64"></path>
                                                <path d="M88.487767,89.0010582 L74.6830478,89.0010582 C73.2967394,89.0010582 72.1727565,87.8705201 72.1727565,86.4761267 L72.1727565,56.1782111 C72.1727565,54.7838176 73.2967394,53.6532796 74.6830478,53.6532796 L88.487767,53.6532796 C89.8740753,53.6532796 90.9980583,54.7838176 90.9980583,56.1782111 L90.9980583,86.4761267 C90.9980583,87.8705201 89.8740753,89.0010582 88.487767,89.0010582" id="Fill-25" fill="#F7F7F7"></path>
                                                <path d="M88.487767,89.0010582 L74.6830478,89.0010582 C73.2967394,89.0010582 72.1727565,87.8705201 72.1727565,86.4761267 L72.1727565,56.1782111 C72.1727565,54.7838176 73.2967394,53.6532796 74.6830478,53.6532796 L88.487767,53.6532796 C89.8740753,53.6532796 90.9980583,54.7838176 90.9980583,56.1782111 L90.9980583,86.4761267 C90.9980583,87.8705201 89.8740753,89.0010582 88.487767,89.0010582 L88.487767,89.0010582 L88.487767,89.0010582 L88.487767,89.0010582 Z" id="Stroke-26" stroke="#545E65" stroke-width="1.5"></path>
                                                <path d="M90.3704854,59.9664921 L90.3704854,82.6883507 L74.055475,82.6883507 L74.055475,59.9664921 L90.3704854,59.9664921 Z" id="Fill-27" fill="#B9C935" opacity="0.3"></path>
                                                <path d="M90.3704227,83.0031465 L74.0554122,83.0031465" id="Stroke-28" stroke="#545E65" stroke-width="0.64"></path>
                                                <path d="M90.3704227,59.649045 L74.0554122,59.649045" id="Stroke-29" stroke="#545E65" stroke-width="0.64"></path>
                                                <path d="M80.6440482,86.7940787 L82.5267666,84.9003801" id="Stroke-30" stroke="#545E65" stroke-width="0.64"></path>
                                            </g>
                                        </g>
                                    </g>
                                </g>
                            </g>
                        </g>
                    </g>
                </g>
            </g>
        </g>
    </g>
</svg>