<?xml version="1.0" encoding="UTF-8" standalone="no"?>
<svg width="91px" height="130px" viewBox="0 0 91 130" version="1.1" xmlns="http://www.w3.org/2000/svg" xmlns:xlink="http://www.w3.org/1999/xlink">
    <!-- Generator: Sketch 3.6.1 (26313) - http://www.bohemiancoding.com/sketch -->
    <title>2</title>
    <desc>Created with Sketch.</desc>
    <defs></defs>
    <g id="官網" stroke="none" stroke-width="1" fill="none" fill-rule="evenodd" opacity="0.7">
        <g id="首頁" transform="translate(-515.000000, -834.000000)">
            <g id="服務項目" transform="translate(0.000000, 600.000000)">
                <g id="2" transform="translate(480.000000, 219.000000)">
                    <rect id="Rectangle-11" stroke="#FFFFFF" fill="#FFFFFF" opacity="0" x="0" y="0" width="160" height="160"></rect>
                    <g transform="translate(35.840000, 15.360000)" id="Page-1">
                        <g>
                            <g transform="translate(0.000000, 0.000000)">
                                <g id="2" transform="translate(0.000000, 0.000000)">
                                    <g id="illustration">
                                        <g id="Page-1">
                                            <g id="2" transform="translate(0.000000, 0.000000)">
                                                <g id="Hand-holding-a-phone" transform="translate(0.000000, 0.000000)">
                                                    <g id="illustration">
                                                        <g id="hand" transform="translate(0.000000, 21.317447)">
                                                            <path d="M57.0812185,69.0752667 C49.1286082,59.7712327 38.7975248,47.5432701 30.2277115,39.5980514 C32.5613599,34.3381433 32.5048117,29.3237297 34.9446603,24.9055169 C38.9975124,17.564751 42.2242089,11.7203323 42.4159211,6.41160034 C42.5248799,3.40033906 40.3691515,0.670330553 37.3562349,0.433088 C34.1074709,0.176590979 29.3077686,1.80771949 29.1932929,4.99158332 C28.2740396,30.6639782 -2.2985471,31.1219595 0.190264062,101.601565 C0.190264062,104.735229 9.81380515,107.274756 21.6854827,107.274756 C33.5564706,107.274756 43.1807013,104.735229 43.1807013,101.601565 C43.6130882,86.0989671 48.6934628,79.6954812 62.6567348,81.4600157 C64.8241865,81.8272259 70.2052321,82.4172378 74.4608303,82.844962 C77.5592588,83.1564718 80.2915031,80.8294318 80.4639062,77.7294625 L80.4639062,77.7294625 C80.6273444,74.7910931 78.4171366,72.2639442 75.4780086,72.0033212 C66.6289022,71.218014 60.3623943,69.8970199 57.0812185,69.0752667" id="Fill-1" fill="#FFFFFF"></path>
                                                            <path d="M57.0812185,69.0752667 C49.1286082,59.7712327 38.7975248,47.5432701 30.2277115,39.5980514 C32.5613599,34.3381433 32.5048117,29.3237297 34.9446603,24.9055169 C38.9975124,17.564751 42.2242089,11.7203323 42.4159211,6.41160034 C42.5248799,3.40033906 40.3691515,0.670330553 37.3562349,0.433088 C34.1074709,0.176590979 29.3077686,1.80771949 29.1932929,4.99158332 C28.2740396,30.6639782 -2.2985471,31.1219595 0.190264062,101.601565 C0.190264062,104.735229 9.81380515,107.274756 21.6854827,107.274756 C33.5564706,107.274756 43.1807013,104.735229 43.1807013,101.601565 C43.6130882,86.0989671 48.6934628,79.6954812 62.6567348,81.4600157 C64.8241865,81.8272259 70.2052321,82.4172378 74.4608303,82.844962 C77.5592588,83.1564718 80.2915031,80.8294318 80.4639062,77.7294625 L80.4639062,77.7294625 C80.6273444,74.7910931 78.4171366,72.2639442 75.4780086,72.0033212 C66.6289022,71.218014 60.3623943,69.8970199 57.0812185,69.0752667 L57.0812185,69.0752667 L57.0812185,69.0752667 L57.0812185,69.0752667 Z" id="Stroke-3" stroke="#545E65" stroke-width="1.28"></path>
                                                            <path d="M88.8951764,52.0649757 C88.8151814,48.6459323 86.0381122,45.8884174 82.6086698,45.8437195 C69.6867126,45.6773059 62.3892341,43.9409654 62.3195833,43.923774 C58.9984099,43.0992701 55.624826,45.1106744 54.7931535,48.4272565 C53.9621705,51.743151 55.9841141,55.1030557 59.3094251,55.9323731 C59.649404,56.0176429 71.7024496,58.9752667 82.6259101,58.7538403 C86.1691386,58.6823237 88.9806884,55.7618335 88.8993141,52.2293263 C88.8979349,52.1750012 88.8965557,52.1199884 88.8951764,52.0649757" id="Fill-5" fill="#FFFFFF"></path>
                                                            <path d="M88.8951764,52.0649757 C88.8151814,48.6459323 86.0381122,45.8884174 82.6086698,45.8437195 C69.6867126,45.6773059 62.3892341,43.9409654 62.3195833,43.923774 C58.9984099,43.0992701 55.624826,45.1106744 54.7931535,48.4272565 C53.9621705,51.743151 55.9841141,55.1030557 59.3094251,55.9323731 C59.649404,56.0176429 71.7024496,58.9752667 82.6259101,58.7538403 C86.1691386,58.6823237 88.9806884,55.7618335 88.8993141,52.2293263 C88.8979349,52.1750012 88.8965557,52.1199884 88.8951764,52.0649757 L88.8951764,52.0649757 L88.8951764,52.0649757 L88.8951764,52.0649757 Z" id="Stroke-7" stroke="#545E65" stroke-width="1.28"></path>
                                                            <path d="M86.3665746,36.0195397 C86.2865796,32.6004963 83.5095104,29.8429814 80.080068,29.7982836 C67.1581108,29.63187 59.8606323,27.8955295 59.7909815,27.878338 C56.4698081,27.0538342 53.0962242,29.0652385 52.2645517,32.3818206 C51.4335687,35.6977151 53.4555123,39.0576197 56.7808233,39.8869372 C57.1208022,39.972207 69.1738478,42.9298308 80.0973083,42.7084044 C83.6405368,42.6368878 86.4520866,39.7163976 86.3707123,36.1838904 C86.3693331,36.1295653 86.3679539,36.0745525 86.3665746,36.0195397" id="Fill-9" fill="#FFFFFF"></path>
                                                            <path d="M86.3665746,36.0195397 C86.2865796,32.6004963 83.5095104,29.8429814 80.080068,29.7982836 C67.1581108,29.63187 59.8606323,27.8955295 59.7909815,27.878338 C56.4698081,27.0538342 53.0962242,29.0652385 52.2645517,32.3818206 C51.4335687,35.6977151 53.4555123,39.0576197 56.7808233,39.8869372 C57.1208022,39.972207 69.1738478,42.9298308 80.0973083,42.7084044 C83.6405368,42.6368878 86.4520866,39.7163976 86.3707123,36.1838904 C86.3693331,36.1295653 86.3679539,36.0745525 86.3665746,36.0195397 L86.3665746,36.0195397 L86.3665746,36.0195397 L86.3665746,36.0195397 Z" id="Stroke-11" stroke="#545E65" stroke-width="1.28"></path>
                                                        </g>
                                                        <g id="mobile" transform="translate(24.136434, 0.000000)">
                                                            <path d="M10.2431578,98.0623183 C4.91935008,98.0623183 0.588584186,93.7438162 0.588584186,88.4350843 L0.588584186,10.0418928 C0.588584186,4.73316085 4.91935008,0.414658723 10.2431578,0.414658723 L47.4822276,0.414658723 C52.8060353,0.414658723 57.1368012,4.73316085 57.1368012,10.0418928 L57.1368012,88.4350843 C57.1368012,93.7438162 52.8060353,98.0623183 47.4822276,98.0623183 L10.2431578,98.0623183 L10.2431578,98.0623183 L10.2431578,98.0623183 Z" id="Fill-13" fill="#F7F7F7"></path>
                                                            <path d="M47.4822276,93.9365671 L10.2431578,93.9365671 C7.19645023,93.9365671 4.7262586,91.4733706 4.7262586,88.4352906 L4.7262586,10.0420991 C4.7262586,7.00401906 7.19645023,4.54082247 10.2431578,4.54082247 L47.4822276,4.54082247 C50.5289352,4.54082247 52.9991268,7.00401906 52.9991268,10.0420991 L52.9991268,88.4352906 C52.9991268,91.4733706 50.5289352,93.9365671 47.4822276,93.9365671" id="Fill-15" fill="#F7F7F7"></path>
                                                            <path d="M47.4822276,93.9365671 L10.2431578,93.9365671 C7.19645023,93.9365671 4.7262586,91.4733706 4.7262586,88.4352906 L4.7262586,10.0420991 C4.7262586,7.00401906 7.19645023,4.54082247 10.2431578,4.54082247 L47.4822276,4.54082247 C50.5289352,4.54082247 52.9991268,7.00401906 52.9991268,10.0420991 L52.9991268,88.4352906 C52.9991268,91.4733706 50.5289352,93.9365671 47.4822276,93.9365671 L47.4822276,93.9365671 L47.4822276,93.9365671 L47.4822276,93.9365671 Z" id="Stroke-17" stroke="#545E65" stroke-width="2"></path>
                                                            <path d="M8.17466543,19.6691268 L49.6202468,19.6691268 L49.6202468,78.8078502 L8.17466543,78.8078502 L8.17466543,19.6691268 L8.17466543,19.6691268 L8.17466543,19.6691268 Z" id="Fill-19" fill="#B9C935" opacity="0.3"></path>
                                                            <path d="M51.6197641,19.3255033 L8.1741827,19.3255033" id="Stroke-21" stroke="#545E65" stroke-width="0.64"></path>
                                                            <path d="M51.6197641,79.1578689 L8.1741827,79.1578689" id="Stroke-22" stroke="#545E65" stroke-width="0.64"></path>
                                                            <path d="M26.4488424,88.7980997 L31.2768189,83.9837951" id="Stroke-23" stroke="#545E65" stroke-width="0.64"></path>
                                                        </g>
                                                        <g id="finger" transform="translate(12.413023, 57.763404)">
                                                            <path d="M21.3779845,46.7094829 C24.1364341,35.8788446 19.9980701,27.4495135 25.1046499,20.8479816 C26.9272955,18.4913723 29.7567752,17.1043629 34.0861619,16.4057008 C37.9176484,15.7868071 40.6788564,12.3952701 40.5961029,8.52512204 C40.5947237,8.44879183 40.5926549,8.37177396 40.5912757,8.29475609 C40.4899026,3.58291268 36.2577513,-0.00735795745 31.5870065,0.714684596 C12.0509767,3.73694843 4.23008248,14.9843084 0.344116589,25.1575442" id="Fill-25" fill="#FFFFFF"></path>
                                                            <path d="M21.3779845,46.7094829 C24.1364341,35.8788446 19.9980701,27.4495135 25.1046499,20.8479816 C26.9272955,18.4913723 29.7567752,17.1043629 34.0861619,16.4057008 C37.9176484,15.7868071 40.6788564,12.3952701 40.5961029,8.52512204 C40.5947237,8.44879183 40.5926549,8.37177396 40.5912757,8.29475609 C40.4899026,3.58291268 36.2577513,-0.00735795745 31.5870065,0.714684596 C12.0509767,3.73694843 4.23008248,14.9843084 0.344116589,25.1575442" id="Stroke-26" stroke="#545E65" stroke-width="1.28"></path>
                                                        </g>
                                                    </g>
                                                </g>
                                            </g>
                                        </g>
                                    </g>
                                </g>
                            </g>
                        </g>
                    </g>
                </g>
            </g>
        </g>
    </g>
</svg>