<?xml version="1.0" encoding="UTF-8" standalone="no"?>
<svg width="130px" height="104px" viewBox="0 0 130 104" version="1.1" xmlns="http://www.w3.org/2000/svg" xmlns:xlink="http://www.w3.org/1999/xlink">
    <!-- Generator: Sketch 3.6.1 (26313) - http://www.bohemiancoding.com/sketch -->
    <title>4</title>
    <desc>Created with Sketch.</desc>
    <defs></defs>
    <g id="官網" stroke="none" stroke-width="1" fill="none" fill-rule="evenodd">
        <g id="首頁" transform="translate(-1135.000000, -847.000000)">
            <g id="服務項目" transform="translate(0.000000, 600.000000)">
                <g id="4" transform="translate(1120.000000, 219.000000)">
                    <rect id="Rectangle-11" stroke="#FFFFFF" fill="#FFFFFF" opacity="0" x="0" y="0" width="160" height="160"></rect>
                    <g transform="translate(15.360000, 28.800000)" id="illustration">
                        <g>
                            <g id="Page-1" transform="translate(-0.000000, 0.000000)">
                                <g id="3">
                                    <g id="Team" transform="translate(-0.000000, -0.000000)">
                                        <g id="illustration">
                                            <g id="notebook" transform="translate(33.184171, 58.072299)">
                                                <path d="M59.8053428,0.348157262 L3.11571713,0.348157262 C1.58855393,0.348157262 0.35036954,1.58634165 0.35036954,3.11350486 L0.35036954,36.2983673 C0.35036954,37.8255305 1.58855393,39.0637149 3.11571713,39.0637149 L59.8053428,39.0637149 C61.332506,39.0637149 62.5706904,37.8255305 62.5706904,36.2983673 L62.5706904,3.11350486 C62.5706904,1.58634165 61.332506,0.348157262 59.8053428,0.348157262" id="Fill-7" fill="#F7F7F7"></path>
                                                <path d="M4.4983218,39.0630927 C3.7357772,39.0630927 3.115648,38.4429635 3.115648,37.6804189 L3.115648,4.49624779 C3.115648,3.73370319 3.7357772,3.11357399 4.4983218,3.11357399 L61.1879475,3.11357399 C61.9504921,3.11357399 62.5706213,3.73370319 62.5706213,4.49624779 L62.5706213,37.6804189 C62.5706213,38.4429635 61.9504921,39.0630927 61.1879475,39.0630927 L4.4983218,39.0630927 L4.4983218,39.0630927 Z" id="Fill-9" fill="#D7ECEA"></path>
                                                <path d="M0.35036954,41.1376565 L0.35036954,43.2082105 C0.35036954,43.9721378 0.969116064,44.5908843 1.73304334,44.5908843 L61.1880166,44.5908843 C61.9519439,44.5908843 62.5706904,43.9721378 62.5706904,43.2082105 L62.5706904,41.1376565" id="Fill-11" fill="#F7F7F7"></path>
                                                <path d="M0.35036954,41.1376565 L0.35036954,43.2082105 C0.35036954,43.9721378 0.969116064,44.5908843 1.73304334,44.5908843 L61.1880166,44.5908843 C61.9519439,44.5908843 62.5706904,43.9721378 62.5706904,43.2082105 L62.5706904,41.1376565" id="Stroke-13" stroke="#545E65" stroke-width="0.64"></path>
                                                <path d="M59.8053428,0.348157262 L3.11571713,0.348157262 C1.58855393,0.348157262 0.35036954,1.58634165 0.35036954,3.11350486 L0.35036954,36.2983673 C0.35036954,37.8255305 1.58855393,39.0637149 3.11571713,39.0637149 L59.8053428,39.0637149 C61.332506,39.0637149 62.5706904,37.8255305 62.5706904,36.2983673 L62.5706904,3.11350486 C62.5706904,1.58634165 61.332506,0.348157262 59.8053428,0.348157262 L59.8053428,0.348157262 L59.8053428,0.348157262 Z" id="Stroke-15" stroke="#545E65" stroke-width="1.5"></path>
                                                <path d="M34.9172836,19.7057978 C34.9172836,21.614579 33.3693803,23.1624823 31.4605991,23.1624823 C29.5511266,23.1624823 28.0039146,21.614579 28.0039146,19.7057978 C28.0039146,17.7970166 29.5511266,16.2491133 31.4605991,16.2491133 C33.3693803,16.2491133 34.9172836,17.7970166 34.9172836,19.7057978" id="Fill-17" fill="#545E65"></path>
                                            </g>
                                            <g id="persone" transform="translate(94.021818, 0.000000)">
                                                <path d="M5.18385147,12.4858209 C5.18385147,5.61324081 10.7553355,0.0417567487 17.6279156,0.0417567487 C24.5004957,0.0417567487 30.0719798,5.61324081 30.0719798,12.4858209" id="Fill-19" fill="#545E65"></path>
                                                <path d="M5.18385147,12.4858209 C5.18385147,5.61324081 10.7553355,0.0417567487 17.6279156,0.0417567487 C24.5004957,0.0417567487 30.0719798,5.61324081 30.0719798,12.4858209" id="Stroke-21" stroke="#545E65" stroke-width="1.28"></path>
                                                <path d="M30.0717724,38.7563465 L5.18364406,38.7563465 L5.18364406,12.4855444 L30.0717724,12.4855444 L30.0717724,38.7563465 L30.0717724,38.7563465 Z" id="Fill-23" fill="#545E65"></path>
                                                <path d="M30.0717724,38.7563465 L5.18364406,38.7563465 L5.18364406,12.4855444 L30.0717724,12.4855444 L30.0717724,38.7563465 L30.0717724,38.7563465 Z" id="Stroke-25" stroke="#545E65" stroke-width="1.28"></path>
                                                <path d="M0.355070631,48.0510946 C0.355070631,40.0965722 8.09320453,33.648473 17.6384931,33.648473 C27.1837816,33.648473 34.9219156,40.0965722 34.9219156,48.0510946" id="Fill-26" fill="#F7F7F7"></path>
                                                <path d="M0.355070631,48.0510946 C0.355070631,40.0965722 8.09320453,33.648473 17.6384931,33.648473 C27.1837816,33.648473 34.9219156,40.0965722 34.9219156,48.0510946" id="Stroke-27" stroke="#545E65" stroke-width="0.64"></path>
                                                <path d="M17.6277082,37.6999837 C17.6277082,39.6094563 16.0798049,41.1573596 14.1703324,41.1573596 C12.2608599,41.1573596 10.7129566,39.6094563 10.7129566,37.6999837 C10.7129566,35.7905112 12.2608599,34.2426079 14.1703324,34.2426079 C16.0798049,34.2426079 17.6277082,35.7905112 17.6277082,37.6999837" id="Fill-29" fill="#545E65"></path>
                                                <path d="M24.5427364,37.6999837 C24.5427364,39.6094563 22.9948331,41.1573596 21.0853606,41.1573596 C19.1758881,41.1573596 17.6279848,39.6094563 17.6279848,37.6999837 C17.6279848,35.7905112 19.1758881,34.2426079 21.0853606,34.2426079 C22.9948331,34.2426079 24.5427364,35.7905112 24.5427364,37.6999837" id="Fill-30" fill="#545E65"></path>
                                                <path d="M12.7883499,25.2560578 L12.7883499,37.0087851 C12.7883499,38.1543304 14.9549998,39.0827958 17.6277082,39.0827958 C20.3004167,39.0827958 22.4670665,38.1543304 22.4670665,37.0087851 L22.4670665,25.2560578 L12.7883499,25.2560578 L12.7883499,25.2560578 Z" id="Fill-31" fill="#F7F7F7"></path>
                                                <path d="M12.7883499,25.2560578 L12.7883499,37.0087851 C12.7883499,38.1543304 14.9549998,39.0827958 17.6277082,39.0827958 C20.3004167,39.0827958 22.4670665,38.1543304 22.4670665,37.0087851 L22.4670665,25.2560578 L12.7883499,25.2560578 L12.7883499,25.2560578 L12.7883499,25.2560578 Z" id="Stroke-32" stroke="#545E65" stroke-width="1.28"></path>
                                                <path d="M7.25786216,12.8115097 L7.25786216,16.9595311 C7.25786216,25.1981929 11.9672491,32.1689429 17.6279156,32.1689429 C23.2878908,32.1689429 27.9979691,25.1981929 27.9979691,16.9595311 L27.9979691,12.8115097 L7.25786216,12.8115097 L7.25786216,12.8115097 Z" id="Fill-33" fill="#F7F7F7"></path>
                                                <path d="M7.25786216,12.8115097 L7.25786216,16.9595311 C7.25786216,25.1981929 11.9672491,32.1689429 17.6279156,32.1689429 C23.2878908,32.1689429 27.9979691,25.1981929 27.9979691,16.9595311 L27.9979691,12.8115097 L7.25786216,12.8115097 L7.25786216,12.8115097 L7.25786216,12.8115097 Z" id="Stroke-34" stroke="#545E65" stroke-width="1.28"></path>
                                                <path d="M27.9981074,12.8115097 C27.9981074,13.957055 23.3550888,14.8855204 17.6280539,14.8855204 C11.901019,14.8855204 7.25800043,13.957055 7.25800043,12.8115097 C7.25800043,11.6659645 11.901019,10.737499 17.6280539,10.737499 C23.3550888,10.737499 27.9981074,11.6659645 27.9981074,12.8115097" id="Fill-35" fill="#545E65"></path>
                                                <path d="M27.9981074,12.8115097 C27.9981074,13.957055 23.3550888,14.8855204 17.6280539,14.8855204 C11.901019,14.8855204 7.25800043,13.957055 7.25800043,12.8115097 C7.25800043,11.6659645 11.901019,10.737499 17.6280539,10.737499 C23.3550888,10.737499 27.9981074,11.6659645 27.9981074,12.8115097 L27.9981074,12.8115097 L27.9981074,12.8115097 Z" id="Stroke-36" stroke="#545E65" stroke-width="1.28"></path>
                                                <path d="M13.4802399,19.3796942 C13.4802399,20.3344305 12.8614934,21.1080364 12.0975661,21.1080364 C11.3336388,21.1080364 10.7148923,20.3344305 10.7148923,19.3796942 C10.7148923,18.4249579 11.3336388,17.651352 12.0975661,17.651352 C12.8614934,17.651352 13.4802399,18.4249579 13.4802399,19.3796942" id="Fill-37" fill="#545E65"></path>
                                                <path d="M24.5427364,19.3796942 C24.5427364,20.3344305 23.9239899,21.1080364 23.1600626,21.1080364 C22.3961354,21.1080364 21.7773888,20.3344305 21.7773888,19.3796942 C21.7773888,18.4249579 22.3961354,17.651352 23.1600626,17.651352 C23.9239899,17.651352 24.5427364,18.4249579 24.5427364,19.3796942" id="Fill-38" fill="#545E65"></path>
                                                <path d="M17.6280539,24.8696005 C16.4666079,24.2328792 15.1067482,24.5896091 14.1713694,25.9467034 C16.0822246,29.6336031 19.1738832,29.6336031 21.0847384,25.9467034 C20.1486682,24.5896091 18.7894999,24.2328792 17.6280539,24.8696005" id="Fill-39" fill="#545E65"></path>
                                            </g>
                                            <g id="persone" transform="translate(42.171551, 0.000000)">
                                                <path d="M47.8244052,32.4945626 C44.8336818,32.4945626 42.4091633,30.0700441 42.4091633,27.0793206 C42.4091633,26.4273899 42.5301473,25.8051867 42.741005,25.2265378 C42.151986,25.087579 41.5401528,25.0060013 40.9089622,25.0060013 C36.5182816,25.0060013 32.9585879,28.565695 32.9585879,32.9563756 C32.9585879,37.3470563 36.5182816,40.9067499 40.9089622,40.9067499 C45.2996429,40.9067499 48.8593366,37.3470563 48.8593366,32.9563756 C48.8593366,32.7676406 48.8441271,32.5830537 48.8309917,32.3977754 C48.5046807,32.458613 48.168691,32.4945626 47.8244052,32.4945626" id="Fill-40" fill="#545E65"></path>
                                                <path d="M47.8244052,32.4945626 C44.8336818,32.4945626 42.4091633,30.0700441 42.4091633,27.0793206 C42.4091633,26.4273899 42.5301473,25.8051867 42.741005,25.2265378 C42.151986,25.087579 41.5401528,25.0060013 40.9089622,25.0060013 C36.5182816,25.0060013 32.9585879,28.565695 32.9585879,32.9563756 C32.9585879,37.3470563 36.5182816,40.9067499 40.9089622,40.9067499 C45.2996429,40.9067499 48.8593366,37.3470563 48.8593366,32.9563756 C48.8593366,32.7676406 48.8441271,32.5830537 48.8309917,32.3977754 C48.5046807,32.458613 48.168691,32.4945626 47.8244052,32.4945626 L47.8244052,32.4945626 L47.8244052,32.4945626 Z" id="Stroke-41" stroke="#545E65" stroke-width="1.28"></path>
                                                <path d="M24.8928294,21.6069052 C24.8928294,27.7162493 19.9407832,32.6682955 13.8314391,32.6682955 C7.72209489,32.6682955 2.77004868,27.7162493 2.77004868,21.6069052 C2.77004868,15.497561 7.72209489,10.5455148 13.8314391,10.5455148 C19.9407832,10.5455148 24.8928294,15.497561 24.8928294,21.6069052" id="Fill-42" fill="#545E65"></path>
                                                <path d="M24.8928294,21.6069052 C24.8928294,27.7162493 19.9407832,32.6682955 13.8314391,32.6682955 C7.72209489,32.6682955 2.77004868,27.7162493 2.77004868,21.6069052 C2.77004868,15.497561 7.72209489,10.5455148 13.8314391,10.5455148 C19.9407832,10.5455148 24.8928294,15.497561 24.8928294,21.6069052 L24.8928294,21.6069052 L24.8928294,21.6069052 Z" id="Stroke-43" stroke="#545E65" stroke-width="1.28"></path>
                                                <path d="M13.1401022,24.3722527 C13.1401022,16.0679139 19.8723409,9.33567521 28.1766797,9.33567521 C36.4810185,9.33567521 43.2132572,16.0679139 43.2132572,24.3722527 C43.2132572,32.6765916 36.4810185,39.4088303 28.1766797,39.4088303 C19.8723409,39.4088303 13.1401022,32.6765916 13.1401022,24.3722527" id="Fill-44" fill="#545E65"></path>
                                                <path d="M13.1401022,24.3722527 C13.1401022,16.0679139 19.8723409,9.33567521 28.1766797,9.33567521 C36.4810185,9.33567521 43.2132572,16.0679139 43.2132572,24.3722527 C43.2132572,32.6765916 36.4810185,39.4088303 28.1766797,39.4088303 C19.8723409,39.4088303 13.1401022,32.6765916 13.1401022,24.3722527 L13.1401022,24.3722527 L13.1401022,24.3722527 Z" id="Stroke-45" stroke="#545E65" stroke-width="1.28"></path>
                                                <path d="M26.9668401,31.2280334 C26.9668401,24.9278802 21.8599345,19.8209745 15.5597813,19.8209745 C9.25962815,19.8209745 4.15272248,24.9278802 4.15272248,31.2280334 C4.15272248,37.5281865 9.25962815,42.6350922 15.5597813,42.6350922 C21.8599345,42.6350922 26.9668401,37.5281865 26.9668401,31.2280334" id="Fill-46" fill="#545E65"></path>
                                                <path d="M26.9668401,31.2280334 C26.9668401,24.9278802 21.8599345,19.8209745 15.5597813,19.8209745 C9.25962815,19.8209745 4.15272248,24.9278802 4.15272248,31.2280334 C4.15272248,37.5281865 9.25962815,42.6350922 15.5597813,42.6350922 C21.8599345,42.6350922 26.9668401,37.5281865 26.9668401,31.2280334 L26.9668401,31.2280334 L26.9668401,31.2280334 Z" id="Stroke-47" stroke="#545E65" stroke-width="1.28"></path>
                                                <path d="M40.4479096,42.1741779 C40.4479096,36.256334 35.6500316,31.458456 29.7321877,31.458456 C23.8143439,31.458456 19.0164658,36.256334 19.0164658,42.1741779 C19.0164658,48.0920217 23.8143439,52.8898998 29.7321877,52.8898998 C35.6500316,52.8898998 40.4479096,48.0920217 40.4479096,42.1741779" id="Fill-48" fill="#545E65"></path>
                                                <path d="M40.4479096,42.1741779 C40.4479096,36.256334 35.6500316,31.458456 29.7321877,31.458456 C23.8143439,31.458456 19.0164658,36.256334 19.0164658,42.1741779 C19.0164658,48.0920217 23.8143439,52.8898998 29.7321877,52.8898998 C35.6500316,52.8898998 40.4479096,48.0920217 40.4479096,42.1741779 L40.4479096,42.1741779 L40.4479096,42.1741779 Z" id="Stroke-49" stroke="#545E65" stroke-width="1.28"></path>
                                                <path d="M6.14480975,14.9746338 C6.14480975,6.72767589 12.8307289,0.0417567487 21.0776868,0.0417567487 C29.3246446,0.0417567487 36.0105638,6.72767589 36.0105638,14.9746338" id="Fill-50" fill="#545E65"></path>
                                                <path d="M6.14480975,14.9746338 C6.14480975,6.72767589 12.8307289,0.0417567487 21.0776868,0.0417567487 C29.3246446,0.0417567487 36.0105638,6.72767589 36.0105638,14.9746338" id="Stroke-51" stroke="#545E65" stroke-width="1.28"></path>
                                                <path d="M0.350231273,57.6529345 C0.350231273,48.1076459 9.63557716,40.369512 21.0903382,40.369512 C32.5450993,40.369512 41.8304452,48.1076459 41.8304452,57.6529345" id="Fill-53" fill="#F7F7F7"></path>
                                                <path d="M0.350231273,57.6529345 C0.350231273,48.1076459 9.63557716,40.369512 21.0903382,40.369512 C32.5450993,40.369512 41.8304452,48.1076459 41.8304452,57.6529345" id="Stroke-54" stroke="#545E65" stroke-width="0.64"></path>
                                                <path d="M29.6498495,44.4021493 C29.6498495,47.4958819 26.1247227,49.6563097 21.0779633,49.6563097 C16.0305126,49.6563097 12.5046944,47.4958819 12.5046944,44.4021493" id="Fill-56" fill="#F7F7F7"></path>
                                                <path d="M29.6498495,44.4021493 C29.6498495,47.4958819 26.1247227,49.6563097 21.0779633,49.6563097 C16.0305126,49.6563097 12.5046944,47.4958819 12.5046944,44.4021493" id="Stroke-57" stroke="#545E65" stroke-width="1.28"></path>
                                                <path d="M15.2701111,30.2988766 L15.2701111,44.4021493 C15.2701111,45.7765271 17.8702292,46.8909621 21.0773411,46.8909621 C24.284453,46.8909621 26.884571,45.7765271 26.884571,44.4021493 L26.884571,30.2988766 L15.2701111,30.2988766 L15.2701111,30.2988766 Z" id="Fill-59" fill="#F7F7F7"></path>
                                                <path d="M15.2701111,30.2988766 L15.2701111,44.4021493 C15.2701111,45.7765271 17.8702292,46.8909621 21.0773411,46.8909621 C24.284453,46.8909621 26.884571,45.7765271 26.884571,44.4021493 L26.884571,30.2988766 L15.2701111,30.2988766 L15.2701111,30.2988766 L15.2701111,30.2988766 Z" id="Stroke-60" stroke="#545E65" stroke-width="1.28"></path>
                                                <path d="M8.63362259,18.1310706 L8.63362259,20.2541662 C8.63362259,29.963993 14.2853017,38.1798407 21.0776868,38.1798407 C27.8700718,38.1798407 33.5217509,29.963993 33.5217509,20.2541662 L33.5217509,18.1310706" id="Fill-61" fill="#F7F7F7"></path>
                                                <path d="M8.63362259,18.1310706 L8.63362259,20.2541662 C8.63362259,29.963993 14.2853017,38.1798407 21.0776868,38.1798407 C27.8700718,38.1798407 33.5217509,29.963993 33.5217509,20.2541662 L33.5217509,18.1310706" id="Stroke-62" stroke="#545E65" stroke-width="1.28"></path>
                                                <path d="M8.63369172,18.8224075 C8.63369172,15.7680811 14.2051758,13.2917123 21.0777559,13.2917123 C27.950336,13.2917123 33.5218201,15.7680811 33.5218201,18.8224075" id="Fill-64" fill="#F7F7F7"></path>
                                                <path d="M15.5474064,23.5930469 C15.5474064,24.5477832 14.9286599,25.3213892 14.1647326,25.3213892 C13.4008053,25.3213892 12.7820588,24.5477832 12.7820588,23.5930469 C12.7820588,22.6383107 13.4008053,21.8647047 14.1647326,21.8647047 C14.9286599,21.8647047 15.5474064,22.6383107 15.5474064,23.5930469" id="Fill-67" fill="#545E65"></path>
                                                <path d="M29.3733147,23.5930469 C29.3733147,24.5477832 28.7545682,25.3213892 27.9906409,25.3213892 C27.2267137,25.3213892 26.6079671,24.5477832 26.6079671,23.5930469 C26.6079671,22.6383107 27.2267137,21.8647047 27.9906409,21.8647047 C28.7545682,21.8647047 29.3733147,22.6383107 29.3733147,23.5930469" id="Fill-68" fill="#545E65"></path>
                                                <path d="M16.9296654,30.8509782 C19.2221385,34.5378779 22.9325437,34.5378779 25.2257081,30.8509782 L16.9296654,30.8509782 L16.9296654,30.8509782 Z" id="Fill-69" fill="#545E65"></path>
                                                <path d="M17.6211405,30.8509782 C19.5319957,29.9294261 22.6236543,29.9294261 24.5345095,30.8509782 L17.6211405,30.8509782 L17.6211405,30.8509782 Z" id="Fill-70" fill="#545E65"></path>
                                                <path d="M23.7695452,0.679100235 C28.2003234,5.10987842 28.2003234,12.2935601 23.7695452,16.7243383 C19.3387671,21.1551165 12.1550853,21.1551165 7.72430717,16.7243383" id="Fill-71" fill="#545E65"></path>
                                                <path d="M23.7695452,0.679100235 C28.2003234,5.10987842 28.2003234,12.2935601 23.7695452,16.7243383 C19.3387671,21.1551165 12.1550853,21.1551165 7.72430717,16.7243383" id="Stroke-72" stroke="#545E65" stroke-width="1.28"></path>
                                                <path d="M28.5831167,7.200896 C25.7057725,10.0782402 25.7057725,14.7440729 28.5831167,17.6214171 C31.4604608,20.4987612 36.1262936,20.4987612 39.0036377,17.6214171" id="Fill-74" fill="#545E65"></path>
                                                <path d="M28.5831167,7.200896 C25.7057725,10.0782402 25.7057725,14.7440729 28.5831167,17.6214171 C31.4604608,20.4987612 36.1262936,20.4987612 39.0036377,17.6214171" id="Stroke-75" stroke="#545E65" stroke-width="1.28"></path>
                                            </g>
                                            <g id="persone" transform="translate(-0.000000, 3.456684)">
                                                <path d="M0.345668449,45.2858161 C0.345668449,37.3312938 8.08380235,30.8831945 17.6290909,30.8831945 C27.1743795,30.8831945 34.9125134,37.3312938 34.9125134,45.2858161" id="Fill-77" fill="#F7F7F7"></path>
                                                <path d="M0.345668449,45.2858161 C0.345668449,37.3312938 8.08380235,30.8831945 17.6290909,30.8831945 C27.1743795,30.8831945 34.9125134,37.3312938 34.9125134,45.2858161" id="Stroke-78" stroke="#545E65" stroke-width="0.64"></path>
                                                <path d="M9.93672351,35.6836997 L17.6181678,42.404877 L25.2996121,35.6836997 L9.93672351,35.6836997 L9.93672351,35.6836997 Z" id="Fill-80" fill="#545E65"></path>
                                                <path d="M9.93672351,35.6836997 L17.6181678,42.404877 L25.2996121,35.6836997 L9.93672351,35.6836997 L9.93672351,35.6836997 L9.93672351,35.6836997 Z" id="Stroke-81" stroke="#545E65" stroke-width="1.28"></path>
                                                <path d="M17.6182369,39.524491 C11.6955537,39.524491 8.01625874,37.3170522 8.01625874,33.7635806 C8.01625874,30.2094176 11.6955537,28.0019789 17.6182369,28.0019789 C23.5409201,28.0019789 27.2202151,30.2094176 27.2202151,33.7635806 C27.2202151,37.3170522 23.5409201,39.524491 17.6182369,39.524491" id="Fill-82" fill="#F7F7F7"></path>
                                                <path d="M17.6182369,39.524491 C11.6955537,39.524491 8.01625874,37.3170522 8.01625874,33.7635806 C8.01625874,30.2094176 11.6955537,28.0019789 17.6182369,28.0019789 C23.5409201,28.0019789 27.2202151,30.2094176 27.2202151,33.7635806 C27.2202151,37.3170522 23.5409201,39.524491 17.6182369,39.524491 L17.6182369,39.524491 L17.6182369,39.524491 Z" id="Stroke-83" stroke="#545E65" stroke-width="1.28"></path>
                                                <path d="M11.8571191,24.1607728 L11.8571191,33.7634423 C11.8571191,34.8239531 14.4364971,35.6832849 17.6180295,35.6832849 C20.8002533,35.6832849 23.3796312,34.8239531 23.3796312,33.7634423 L23.3796312,24.1607728 L11.8571191,24.1607728 L11.8571191,24.1607728 Z" id="Fill-84" fill="#F7F7F7"></path>
                                                <path d="M11.8571191,24.1607728 L11.8571191,33.7634423 C11.8571191,34.8239531 14.4364971,35.6832849 17.6180295,35.6832849 C20.8002533,35.6832849 23.3796312,34.8239531 23.3796312,33.7634423 L23.3796312,24.1607728 L11.8571191,24.1607728 L11.8571191,24.1607728 L11.8571191,24.1607728 Z" id="Stroke-85" stroke="#545E65" stroke-width="1.28"></path>
                                                <path d="M10.9350831,15.988341 C10.9350831,17.7699162 9.49088034,19.2148104 7.70861382,19.2148104 C5.92703863,19.2148104 4.48283585,17.0785793 4.48283585,15.2970041 C4.48283585,13.515429 5.92703863,12.7618717 7.70861382,12.7618717 C9.49088034,12.7618717 10.9350831,14.2067659 10.9350831,15.988341" id="Fill-86" fill="#F7F7F7"></path>
                                                <path d="M10.9350831,15.988341 C10.9350831,17.7699162 9.49088034,19.2148104 7.70861382,19.2148104 C5.92703863,19.2148104 4.48283585,17.0785793 4.48283585,15.2970041 C4.48283585,13.515429 5.92703863,12.7618717 7.70861382,12.7618717 C9.49088034,12.7618717 10.9350831,14.2067659 10.9350831,15.988341 L10.9350831,15.988341 L10.9350831,15.988341 Z" id="Stroke-87" stroke="#545E65" stroke-width="1.28"></path>
                                                <path d="M24.301529,15.6426726 C24.301529,17.4242478 25.7457318,18.8691419 27.5279983,18.8691419 C29.3095735,18.8691419 30.7537763,16.7329109 30.7537763,14.9513357 C30.7537763,13.1697605 29.3095735,12.4162033 27.5279983,12.4162033 C25.7457318,12.4162033 24.301529,13.8610974 24.301529,15.6426726" id="Fill-88" fill="#F7F7F7"></path>
                                                <path d="M24.301529,15.6426726 C24.301529,17.4242478 25.7457318,18.8691419 27.5279983,18.8691419 C29.3095735,18.8691419 30.7537763,16.7329109 30.7537763,14.9513357 C30.7537763,13.1697605 29.3095735,12.4162033 27.5279983,12.4162033 C25.7457318,12.4162033 24.301529,13.8610974 24.301529,15.6426726 L24.301529,15.6426726 L24.301529,15.6426726 Z" id="Stroke-89" stroke="#545E65" stroke-width="1.28"></path>
                                                <path d="M17.6183061,0.367583829 C11.8912712,0.367583829 7.24825258,5.31963003 7.24825258,11.4289742 C7.24825258,17.5383184 11.8912712,22.4903646 17.6183061,22.4903646 C23.3453409,22.4903646 27.9883595,17.5383184 27.9883595,11.4289742 C27.9883595,5.31963003 23.3453409,0.367583829 17.6183061,0.367583829" id="Fill-90" fill="#545E65"></path>
                                                <path d="M17.6183061,0.367583829 C11.8912712,0.367583829 7.24825258,5.31963003 7.24825258,11.4289742 C7.24825258,17.5383184 11.8912712,22.4903646 17.6183061,22.4903646 C23.3453409,22.4903646 27.9883595,17.5383184 27.9883595,11.4289742 C27.9883595,5.31963003 23.3453409,0.367583829 17.6183061,0.367583829 L17.6183061,0.367583829 L17.6183061,0.367583829 Z" id="Stroke-91" stroke="#545E65" stroke-width="1.28"></path>
                                                <path d="M24.6808655,6.37675328 C22.828774,5.22567735 20.3503312,4.51567435 17.6181678,4.51567435 C14.8860044,4.51567435 12.4082529,5.22567735 10.55547,6.37675328 C9.91529206,8.64433831 9.22395517,10.6028957 7.24811431,12.1010228 L7.24811431,14.1943909 C7.24811431,22.4323614 11.9581926,28.0204376 17.6181678,28.0204376 C23.2788343,28.0204376 27.9882213,22.4323614 27.9882213,14.1943909 L27.9882213,12.1010228 C26.0130717,10.6028957 25.3217348,8.64433831 24.6808655,6.37675328" id="Fill-92" fill="#F7F7F7"></path>
                                                <path d="M24.6808655,6.37675328 C22.828774,5.22567735 20.3503312,4.51567435 17.6181678,4.51567435 C14.8860044,4.51567435 12.4082529,5.22567735 10.55547,6.37675328 C9.91529206,8.64433831 9.22395517,10.6028957 7.24811431,12.1010228 L7.24811431,14.1943909 C7.24811431,22.4323614 11.9581926,28.0204376 17.6181678,28.0204376 C23.2788343,28.0204376 27.9882213,22.4323614 27.9882213,14.1943909 L27.9882213,12.1010228 C26.0130717,10.6028957 25.3217348,8.64433831 24.6808655,6.37675328 L24.6808655,6.37675328 L24.6808655,6.37675328 Z" id="Stroke-93" stroke="#545E65" stroke-width="1.28"></path>
                                                <path d="M13.4871533,15.4424614 C13.4871533,16.3971977 12.8684068,17.1708037 12.1044795,17.1708037 C11.3405522,17.1708037 10.7218057,16.3971977 10.7218057,15.4424614 C10.7218057,14.4877252 11.3405522,13.7141192 12.1044795,13.7141192 C12.8684068,13.7141192 13.4871533,14.4877252 13.4871533,15.4424614" id="Fill-94" fill="#545E65"></path>
                                                <path d="M24.5485437,15.4424614 C24.5485437,16.3971977 23.9297971,17.1708037 23.1658699,17.1708037 C22.4019426,17.1708037 21.7831961,16.3971977 21.7831961,15.4424614 C21.7831961,14.4877252 22.4019426,13.7141192 23.1658699,13.7141192 C23.9297971,13.7141192 24.5485437,14.4877252 24.5485437,15.4424614" id="Fill-95" fill="#545E65"></path>
                                                <path d="M25.5856181,23.9473571 C25.5856181,27.8409665 22.0183197,30.9976108 17.6186517,30.9976108 C13.2182924,30.9976108 9.65099397,27.8409665 9.65099397,23.9473571 C9.65099397,20.0537477 13.0558282,19.590552 17.4554962,19.590552 C21.8558556,19.590552 25.5856181,20.0537477 25.5856181,23.9473571" id="Fill-96" fill="#545E65"></path>
                                                <path d="M15.1410385,22.5759521 C16.5098856,24.0478083 18.7263117,24.0478083 20.0958501,22.5759521 L15.1410385,22.5759521 L15.1410385,22.5759521 Z" id="Fill-97" fill="#F7F7F7"></path>
                                                <path d="M15.1410385,22.5759521 C16.5098856,24.0478083 18.7263117,24.0478083 20.0958501,22.5759521 L15.1410385,22.5759521 L15.1410385,22.5759521 L15.1410385,22.5759521 Z" id="Stroke-98" stroke="#F7F7F7" stroke-width="1.28"></path>
                                            </g>
                                        </g>
                                    </g>
                                </g>
                            </g>
                        </g>
                    </g>
                </g>
            </g>
        </g>
    </g>
</svg>