<?xml version="1.0" encoding="UTF-8"?>
<svg width="154px" height="44px" viewBox="0 0 154 44" version="1.1" xmlns="http://www.w3.org/2000/svg" xmlns:xlink="http://www.w3.org/1999/xlink">
    <!-- Generator: Sketch 39.1 (31720) - http://www.bohemiancoding.com/sketch -->
    <title>Logo</title>
    <desc>Created with Sketch.</desc>
    <defs></defs>
    <g id="Symbols" stroke="none" stroke-width="1" fill="none" fill-rule="evenodd" opacity="0.9">
        <g id="Header---首頁" transform="translate(-70.000000, -18.000000)">
            <g id="Header">
                <g id="Logo" transform="translate(70.000000, 18.000000)">
                    <g id="logo">
                        <g id="資源總匯">
                            <g>
                                <g id="資源總匯---首頁">
                                    <g id="Navigation">
                                        <g id="logo">
                                            <g id="Group" transform="translate(53.000000, 10.000000)" fill="#43484D">
                                                <path d="M11.8511411,18.8178986 L20.3752312,18.8178986 C20.7754233,18.8178986 21.0555577,18.5383935 21.0555577,18.0592421 C21.0155385,17.6200199 20.7754233,17.3405149 20.3752312,17.3005856 L11.6110259,17.3005856 L11.6110259,16.8214341 C11.5710067,16.4221412 11.2908723,16.1426362 10.850661,16.0627776 L10.8106418,16.0627776 L10.7706226,16.0627776 C10.3704306,16.1426362 10.1303154,16.3822119 10.0902962,16.8214341 L10.0902962,17.2606563 L1.12599483,17.2606563 C0.685783606,17.3005856 0.445668391,17.5800906 0.445668391,18.0193128 C0.445668391,18.4984643 0.685783606,18.7779693 1.12599483,18.7779693 L9.81016178,18.7779693 C9.81016178,18.7779693 8.48952809,20.5747873 6.16841435,21.5330903 C3.8473006,22.4913932 2.44662852,22.8906861 1.48616766,23.0903326 C0.525706796,23.289979 0.0454763665,23.569484 0.0454763665,24.1684234 C0.0454763665,24.7673627 0.605745201,24.9670092 1.36611005,24.7673627 C2.1264749,24.5677163 6.36851036,23.5295547 8.88972012,21.6528781 C9.69010417,21.0938681 10.2903922,20.4949287 10.7306034,19.9359187 C10.7306034,19.9359187 11.9711987,21.8125953 14.4123701,22.8108275 C16.8535414,23.8090598 19.534828,24.807292 20.0550776,24.8472213 C20.5753272,24.8871506 20.8954809,24.8472213 21.0555577,24.3680698 C21.2156345,23.8889184 21.0555577,23.4896255 20.6153465,23.3299083 C20.1751352,23.2101204 16.4133302,22.2518175 14.8525813,21.3334438 C13.2918324,20.4150702 12.7315636,20.0956358 11.8511411,18.8178986 L11.8511411,18.8178986 L11.8511411,18.8178986 Z" id="Shape"></path>
                                                <path d="M8.96975852,3.16561706 L17.3337718,3.16561706 C18.6544055,3.16561706 19.3747512,3.96420285 19.3747512,5.40165728 L19.3747512,17.8595956 C19.3747512,18.4984643 18.9345399,18.6182521 18.6944247,18.6182521 C18.0541175,18.6182521 17.8940407,18.2189592 17.8940407,17.8595956 L17.8940407,5.60130372 C17.8940407,4.96243509 17.6139063,4.68293006 17.0536374,4.68293006 L4.48760784,4.68293006 C3.92733901,4.68293006 3.64720459,4.96243509 3.64720459,5.60130372 L3.64720459,17.8595956 C3.64720459,18.1391007 3.52714698,18.6182521 2.84682054,18.6182521 C2.40660931,18.6182521 2.1664941,18.3786764 2.1664941,17.8595956 L2.1664941,5.40165728 C2.1664941,3.52498067 3.28703177,3.16561706 4.20747343,3.16561706 L7.24893282,3.16561706 C7.24893282,3.16561706 7.76918245,2.36703127 8.04931687,1.64830405 C8.32945128,0.929576842 8.6496049,0.729930394 9.12983533,0.929576842 C9.61006576,1.12922329 9.65008497,1.52851619 9.57004656,1.76809192 C9.49000816,2.00766766 9.16985454,2.84618274 8.96975852,3.16561706 L8.96975852,3.16561706 L8.96975852,3.16561706 Z" id="Shape"></path>
                                                <path d="M7.64912484,14.5055353 C8.5295473,13.8666667 9.28991214,13.3076566 9.97023859,12.668788 L9.97023859,14.9048282 C9.97023859,14.9048282 10.0102578,15.6634847 10.6105458,15.6634847 C11.2108339,15.6634847 11.3709107,15.1044746 11.3709107,14.9048282 L11.3709107,12.5090708 C11.3709107,12.5090708 13.211794,14.2659596 14.7725429,15.0246161 C16.3332918,15.7832726 16.773503,16.0627776 17.2537334,15.6235554 C17.6939447,15.1843332 17.2937526,14.465606 16.973599,14.3058889 C15.5329077,13.7069495 14.7725429,13.3875152 13.9721588,12.7885758 C13.211794,12.3094244 12.4914483,11.7504143 11.8511411,11.151475 L16.6134262,11.151475 C16.8135222,11.151475 17.2137142,11.0716164 17.2137142,10.4327478 C17.2137142,9.79387913 16.6134262,9.75394984 16.6134262,9.75394984 L11.4109299,9.75394984 L11.4109299,7.2384046 C12.9316596,7.11861673 14.4123701,6.99882886 15.8530614,6.79918241 C15.8530614,6.79918241 16.573407,6.79918241 16.573407,6.12038449 C16.573407,5.28186941 15.8530614,5.40165728 15.8530614,5.40165728 C12.4914483,5.84087946 8.88972012,6.12038449 5.12791508,6.20024307 C5.12791508,6.20024307 4.44758864,6.32003094 4.44758864,6.87904099 C4.44758864,7.43805104 4.96783827,7.63769749 5.12791508,7.63769749 C6.76870239,7.5977682 8.28943208,7.51790962 10.0102578,7.39812175 L10.0102578,9.83380842 L5.20795349,9.83380842 C4.80776146,9.87373771 4.60766545,10.1532427 4.60766545,10.5924649 C4.60766545,10.9917578 4.84778067,11.2313336 5.24797269,11.2712628 L9.65008497,11.2712628 C8.76966251,12.1497072 7.92925926,12.8285051 7.08885601,13.3475859 C6.16841435,13.906596 5.76822232,14.2659596 4.64768465,14.6652525 C4.32753103,14.745111 4.16745422,14.9846868 4.16745422,15.423909 C4.16745422,15.423909 4.16745422,16.2224948 4.88779987,16.1426362 C5.60814551,16.0627776 7.0488368,14.9447575 7.64912484,14.5055353 L7.64912484,14.5055353 L7.64912484,14.5055353 Z" id="Shape"></path>
                                                <path d="M7.60910564,7.51790962 C7.88924006,7.71755607 8.28943208,8.39635399 8.5295473,8.71578831 C8.5295473,8.71578831 9.08981613,9.63416197 7.92925926,9.87373771 C7.68914404,9.87373771 7.52906723,9.63416197 7.32897122,9.39458623 C7.0088176,8.91543476 6.68866398,8.59600044 6.56860637,8.43628328 C6.44854877,8.15677826 6.40852956,8.03699039 6.40852956,7.91720252 C6.40852956,7.79741465 6.64864478,6.75925312 7.60910564,7.51790962 L7.60910564,7.51790962 L7.60910564,7.51790962 Z" id="Shape"></path>
                                                <path d="M37.0816386,25.2065849 C36.6014082,25.1666556 36.2812546,24.8871506 36.2812546,24.4479284 L36.2812546,20.6945752 L27.3569724,20.6945752 C26.9167612,20.6945752 26.6366268,20.4150702 26.6366268,19.9359187 C26.6366268,19.4567672 26.876742,19.1772622 27.3569724,19.1772622 L36.2812546,19.1772622 L36.2812546,17.220727 L30.3183934,17.220727 C29.0777981,17.220727 28.4374909,16.5419291 28.4374909,15.1843332 L28.4374909,12.5889294 C28.4374909,10.9118992 29.4779901,10.5525356 30.3183934,10.5525356 L36.2812546,10.5525356 L36.2812546,8.47621257 L32.5594687,8.47621257 C31.6790463,8.47621257 30.5985278,8.11684897 30.5985278,6.32003094 L30.5985278,4.68293006 L29.1578365,4.68293006 C28.7176253,4.68293006 28.4374909,4.40342504 28.4374909,3.92427356 C28.4374909,3.44512209 28.7176253,3.16561706 29.1578365,3.16561706 L30.5985278,3.16561706 L30.5985278,1.60837477 C30.5985278,0.849718263 31.0787582,0.769859684 31.3989119,0.769859684 C31.6790463,0.769859684 32.1192575,0.889647553 32.1192575,1.60837477 L32.1192575,3.16561706 L41.7638853,3.16561706 L41.7638853,1.60837477 C41.7638853,0.849718263 42.2040965,0.769859684 42.484231,0.769859684 C42.7643654,0.769859684 43.284615,0.889647553 43.284615,1.60837477 L43.284615,3.16561706 L44.9254023,3.16561706 C45.3255943,3.16561706 45.5657095,3.4051928 45.6457479,3.88434427 L45.6457479,3.92427356 L45.6457479,3.96420285 C45.6057287,4.40342504 45.3255943,4.68293006 44.9254023,4.68293006 L43.284615,4.68293006 L43.284615,6.32003094 C43.284615,8.11684897 42.2040965,8.47621257 41.3236741,8.47621257 L37.8019843,8.47621257 L37.8019843,10.5525356 L43.7648454,10.5525356 C44.6052487,10.5525356 45.6457479,10.9118992 45.6457479,12.5889294 L45.6457479,15.1843332 C45.6457479,16.8613634 44.6452679,17.220727 43.7648454,17.220727 L37.8019843,17.220727 L37.8019843,19.1772622 L46.8063048,19.1772622 C47.2064968,19.2171915 47.4866313,19.4966965 47.5266505,19.9359187 L47.5266505,19.975848 L47.5266505,20.0157773 C47.4866313,20.4549994 47.2064968,20.7345045 46.8063048,20.7345045 L37.8019843,20.7345045 L37.8019843,24.4878577 C37.7219459,25.086797 37.4017922,25.2065849 37.1216578,25.2465142 L37.0816386,25.2065849 L37.0816386,25.2065849 L37.0816386,25.2065849 L37.0816386,25.2065849 Z M43.5647494,15.703414 C43.8048646,15.703414 44.1250183,15.6235554 44.1250183,15.0645454 L44.1250183,12.668788 C44.1250183,12.0299193 43.7248262,12.0299193 43.5647494,12.0299193 L37.7619651,12.0299193 L37.7619651,15.6634847 L43.5647494,15.6634847 L43.5647494,15.703414 L43.5647494,15.703414 Z M30.5184894,12.0299193 C30.2783742,12.0299193 29.9582206,12.1097779 29.9582206,12.668788 L29.9582206,15.0645454 C29.9582206,15.5836261 30.1983358,15.703414 30.5184894,15.703414 L36.3212738,15.703414 L36.3212738,12.0698486 L30.5184894,12.0698486 L30.5184894,12.0299193 L30.5184894,12.0299193 Z M32.1192575,6.0804552 C32.1192575,6.63946525 32.3593727,6.91897028 32.8396031,6.91897028 L41.0435397,6.91897028 C41.5637893,6.91897028 41.7638853,6.67939454 41.7638853,6.0804552 L41.7638853,4.64300077 L32.1192575,4.64300077 L32.1192575,6.0804552 L32.1192575,6.0804552 L32.1192575,6.0804552 Z" id="Shape"></path>
                                                <path d="M95.3863973,24.7673627 C94.9061669,24.7274334 94.6260325,24.4479284 94.6260325,24.0087062 L94.6260325,9.95359629 L90.183901,9.95359629 C89.7036706,9.913667 89.4635554,9.63416197 89.4635554,9.19493979 C89.4635554,8.7557176 89.7036706,8.47621257 90.183901,8.43628328 L94.6260325,8.43628328 L94.6260325,1.60837477 C94.6260325,1.16915258 94.9061669,0.889647553 95.3863973,0.849718263 L95.4264165,0.849718263 L95.4664357,0.849718263 C95.8266085,0.889647553 96.106743,1.12922329 96.1467622,1.56844548 L96.1467622,8.39635399 L100.188702,8.39635399 C100.428817,8.39635399 100.829009,8.51614186 100.909047,9.11508121 L100.909047,9.1550105 L100.909047,9.19493979 C100.869028,9.63416197 100.588894,9.87373771 100.188702,9.913667 L96.106743,9.913667 L96.106743,23.9687769 C96.0267046,24.5677163 95.6265125,24.6875041 95.4264165,24.7274334 L95.3863973,24.7673627 L95.3863973,24.7673627 L95.3863973,24.7673627 L95.3863973,24.7673627 Z M82.1400413,24.807292 C81.2596188,24.807292 80.1791004,24.4479284 80.1791004,22.6511104 L80.1791004,17.220727 C80.1791004,15.423909 81.2596188,15.0645454 82.1400413,15.0645454 L86.7422496,15.0645454 C87.622672,15.0645454 88.7031905,15.423909 88.7031905,17.220727 L88.7031905,22.6511104 C88.7031905,24.4479284 87.622672,24.807292 86.7422496,24.807292 L82.1400413,24.807292 L82.1400413,24.807292 L82.1400413,24.807292 Z M82.3801565,16.6217876 C81.8599069,16.6217876 81.6598109,16.8613634 81.6598109,17.4603027 L81.6598109,22.4913932 C81.6598109,23.0504033 81.8999261,23.3299083 82.3801565,23.3299083 L86.422096,23.3299083 C86.9423456,23.3299083 87.1424416,23.0903326 87.1424416,22.4913932 L87.1424416,17.4603027 C87.1424416,16.9012927 86.9023264,16.6217876 86.422096,16.6217876 L82.3801565,16.6217876 L82.3801565,16.6217876 L82.3801565,16.6217876 Z M81.0595228,13.1080102 C80.6193116,13.1080102 80.3391772,12.8285051 80.3391772,12.3493537 C80.3391772,11.9101315 80.5792924,11.6306265 81.0595228,11.5906972 L87.822768,11.5906972 C88.2629793,11.6306265 88.5030945,11.9101315 88.5030945,12.3493537 C88.4630753,12.8285051 88.2229601,13.1080102 87.822768,13.1080102 L81.0595228,13.1080102 L81.0595228,13.1080102 L81.0595228,13.1080102 Z M81.0595228,9.913667 C80.6193116,9.913667 80.3391772,9.63416197 80.3391772,9.1550105 C80.3391772,8.71578831 80.5792924,8.43628328 81.0595228,8.39635399 L87.822768,8.39635399 C88.2629793,8.43628328 88.5030945,8.71578831 88.5030945,9.1550105 C88.4630753,9.63416197 88.2229601,9.913667 87.822768,9.913667 L81.0595228,9.913667 L81.0595228,9.913667 L81.0595228,9.913667 Z M80.0590428,6.67939454 C79.5788123,6.63946525 79.3386971,6.35996023 79.3386971,5.92073804 C79.3386971,5.48151585 79.5788123,5.20201083 80.0590428,5.16208154 L88.8232481,5.16208154 C89.2634593,5.20201083 89.5035746,5.48151585 89.5035746,5.92073804 C89.4635554,6.39988951 89.2234401,6.67939454 88.8232481,6.71932383 L88.8232481,6.71932383 L80.0590428,6.71932383 L80.0590428,6.67939454 L80.0590428,6.67939454 Z M81.2596188,3.36526351 C80.7793884,3.32533422 80.5392732,3.04582919 80.5392732,2.606607 C80.5392732,2.16738482 80.7793884,1.88787979 81.2596188,1.8479505 L87.6626912,1.8479505 C88.1029025,1.88787979 88.3430177,2.16738482 88.3430177,2.606607 C88.3029985,3.08575848 88.0628833,3.36526351 87.6626912,3.4051928 L87.6626912,3.4051928 L81.2596188,3.4051928 L81.2596188,3.36526351 L81.2596188,3.36526351 Z" id="Shape"></path>
                                                <path d="M12.9316596,8.63592973 C13.0917364,8.47621257 13.7320436,7.51790962 13.812082,7.27833389 C13.8921204,7.03875815 14.4523893,6.67939454 14.8525813,6.95889957 C15.2527733,7.2384046 15.2127541,7.5977682 15.1727349,7.75748536 C15.1327157,7.91720252 14.6524853,8.7557176 14.2923125,9.19493979 C13.9321396,9.63416197 13.6920244,9.95359629 13.2918324,9.913667 C12.8916404,9.87373771 12.4914483,9.11508121 12.9316596,8.63592973 L12.9316596,8.63592973 L12.9316596,8.63592973 Z" id="Shape"></path>
                                                <path d="M55.5088719,24.6076457 C54.6284495,24.6076457 53.547931,24.2482821 53.547931,22.4514641 L53.547931,17.4603029 C53.547931,15.6634848 54.6284495,15.3041212 55.5088719,15.3041212 L58.8304657,15.3041212 C59.7509074,15.3041212 60.8314259,15.6634848 60.8314259,17.4603029 L60.8314259,22.4514641 C60.8314259,24.2482821 59.7509074,24.6076457 58.8304657,24.6076457 L55.5088719,24.6076457 L55.5088719,24.6076457 L55.5088719,24.6076457 Z M55.7890063,16.8214342 C55.2687567,16.8214342 55.0686607,17.06101 55.0686607,17.6599493 L55.0686607,22.2518176 C55.0686607,22.8108277 55.3087759,23.0903327 55.7890063,23.0903327 L58.5903505,23.0903327 C59.1106002,23.0903327 59.3106962,22.850757 59.3106962,22.2518176 L59.3106962,17.6599493 C59.3106962,17.1009393 59.070581,16.8214342 58.5903505,16.8214342 L55.7890063,16.8214342 L55.7890063,16.8214342 L55.7890063,16.8214342 Z" id="Shape"></path>
                                                <path d="M54.3082959,13.4274446 C53.8680846,13.4274446 53.6279694,13.1479396 53.6279694,12.6687881 C53.6279694,12.1896366 53.8680846,11.9101316 54.3082959,11.9101316 L59.9109842,11.9101316 C60.3111762,11.9500609 60.5913106,12.2295659 60.6313299,12.6687881 L60.6313299,12.7087174 L60.6313299,12.7486467 C60.5913106,13.1878689 60.3111762,13.4673739 59.9109842,13.4673739 L54.3082959,13.4673739 L54.3082959,13.4274446 L54.3082959,13.4274446 Z" id="Shape"></path>
                                                <path d="M54.3082959,10.033455 C53.8680846,10.033455 53.6279694,9.75394998 53.6279694,9.27479851 C53.6279694,8.79564703 53.8680846,8.51614201 54.3082959,8.51614201 L59.9109842,8.51614201 C60.3111762,8.5560713 60.5512914,8.83557632 60.6313299,9.27479851 L60.6313299,9.3147278 L60.6313299,9.35465709 C60.5913106,9.79387927 60.3111762,10.0733843 59.9109842,10.0733843 L54.3082959,10.0733843 L54.3082959,10.033455 L54.3082959,10.033455 Z" id="Shape"></path>
                                                <path d="M53.5879502,6.67939468 C53.1077198,6.6394654 52.8676046,6.35996037 52.8676046,5.92073818 C52.8676046,5.481516 53.1077198,5.20201097 53.5879502,5.16208168 L60.7113683,5.16208168 C61.1115603,5.20201097 61.3516755,5.44158671 61.4317139,5.88080889 L61.4317139,5.92073818 L61.4317139,5.96066747 C61.3916947,6.39988966 61.1115603,6.6394654 60.7513875,6.67939468 L60.7513875,6.67939468 L53.5879502,6.67939468 L53.5879502,6.67939468 L53.5879502,6.67939468 Z" id="Shape"></path>
                                                <path d="M54.4283535,3.48505152 C53.9881422,3.44512223 53.748027,3.1656172 53.748027,2.72639502 C53.748027,2.28717283 53.9881422,2.0076678 54.4283535,1.96773851 L59.7509074,1.96773851 C59.9910226,1.96773851 60.3912146,2.08752638 60.4712531,2.68646573 L60.4712531,2.72639502 L60.4712531,2.76632431 C60.4312338,3.20554649 60.1510994,3.44512223 59.7909266,3.48505152 L59.7909266,3.48505152 L54.4283535,3.48505152 L54.4283535,3.48505152 L54.4283535,3.48505152 Z" id="Shape"></path>
                                                <path d="M61.2716371,11.4709094 C61.4317139,11.7504145 61.9119443,11.9101316 62.1920788,11.7504145 C62.4722132,11.5906973 63.63277,10.6323943 64.1930389,9.59423282 C64.7533077,8.5560713 65.1534997,7.11861687 65.1534997,5.88080889 C65.1935189,4.64300092 65.2335381,4.16384944 65.2335381,4.00413228 C65.2335381,3.84441512 65.3535958,3.44512223 65.9138646,3.44512223 L68.9153048,3.44512223 C69.1954392,3.44512223 69.5155928,3.60483939 69.5155928,3.9242737 L69.5155928,9.27479851 C69.5155928,9.63416211 69.555612,11.2313337 71.3964953,11.2313337 C73.2373786,11.2313337 73.5575323,11.3511216 73.9177051,10.3928186 C74.2778779,9.43451567 74.4379547,7.19847545 74.3979355,6.79918255 C74.3979355,6.79918255 74.3178971,6.04052605 73.6375707,6.04052605 C72.9572442,6.04052605 72.9572442,6.43981895 72.917225,6.67939468 C72.8772058,6.91897042 72.7571482,8.5560713 72.6771098,8.9154349 C72.5970714,9.27479851 72.4770138,9.6740914 72.0768218,9.6740914 L71.3964953,9.6740914 C71.3164569,9.6740914 70.9963033,9.6740914 70.9963033,8.99529348 L70.9963033,3.76455655 C70.9963033,3.48505152 70.8362265,2.76632431 70.5160729,2.44688999 C70.1959193,2.12745567 69.8357464,1.92780922 69.0353624,1.92780922 L65.5536918,1.92780922 C65.1935189,1.92780922 64.5932309,2.04759709 64.2730773,2.36703141 C63.9529237,2.68646573 63.7128084,3.20554649 63.7128084,3.80448584 C63.7128084,4.40342518 63.63277,6.67939468 63.5127124,7.15854616 C63.3926548,7.63769763 62.9924628,8.79564703 62.3521556,9.43451567 C61.7118483,10.0733843 61.4317139,10.2331015 61.3516755,10.3528893 C61.2716371,10.4726772 60.9915027,10.9118994 61.2716371,11.4709094 L61.2716371,11.4709094 L61.2716371,11.4709094 Z" id="Shape"></path>
                                                <path d="M67.5946711,21.6528783 C66.3540758,22.4913934 64.7132885,23.4496963 62.6723092,24.4878578 C61.3516755,24.9670093 61.3516755,23.7292013 61.3516755,23.7292013 C61.3916947,23.409767 61.5117523,23.2101206 61.7918867,23.0903327 C63.9929429,22.0521712 65.4736534,21.2535854 66.3540758,20.654646 C65.7537878,20.1754946 65.2735573,19.6564138 64.8733653,19.1772623 C64.4331541,18.6182523 63.9929429,18.0193129 63.63277,17.340515 C63.1525396,16.6617171 62.7523476,15.9030606 62.432194,15.1843334 C62.1920788,14.5454647 62.0720212,14.1062425 62.0720212,13.8267375 C62.0720212,13.4274446 62.1520596,13.068081 62.3521556,12.788576 C62.5922708,12.3892831 62.9924628,12.1497074 63.5527316,12.1097781 L71.7166489,12.1097781 C72.4369946,12.1097781 73.317417,12.4292124 73.317417,13.8666668 C73.317417,14.1461718 73.1973594,14.585394 72.9572442,15.2242627 C72.4770138,16.3023535 71.8367066,17.3804443 71.0363225,18.3387472 C70.3960153,19.137333 69.6756696,19.8959895 68.8352664,20.6147167 C68.8752856,20.654646 68.9153048,20.654646 68.9153048,20.654646 C69.8757656,21.2935147 71.8367066,22.2118883 73.8776859,22.9306155 C74.3579163,23.0903327 74.5179931,23.7292013 74.3579163,24.0885649 C74.1978395,24.4479285 73.7976475,24.5677164 73.6375707,24.5677164 C73.4774939,24.5277871 73.0372826,24.4079993 73.0372826,24.4079993 C70.7561881,23.8489892 67.5946711,21.6528783 67.5946711,21.6528783 L67.5946711,21.6528783 L67.5946711,21.6528783 Z M67.6346903,19.6963431 C68.5151127,18.9776159 69.2354584,18.2588887 69.7957272,17.5800907 C70.5160729,16.6617171 71.0763417,15.823202 71.5165529,14.9048283 C71.6366105,14.5454647 71.7166489,14.2659597 71.7166489,14.026384 C71.7166489,13.6670204 71.5165529,13.5871618 71.3564761,13.5871618 L63.9129045,13.5871618 C63.7928469,13.6270911 63.63277,13.7069497 63.6727892,13.9864547 C63.6727892,14.1861011 63.7528277,14.6652526 64.0729813,15.2242627 C64.3931349,15.7832727 65.993903,18.5383937 67.6346903,19.6963431 L67.6346903,19.6963431 L67.6346903,19.6963431 Z" id="Shape"></path>
                                            </g>
                                            <g id="Group">
                                                <path d="M18.26875,4.51578947 C18.615625,4.86315789 17.228125,2.54736842 15.95625,2.31578947 C14.684375,2.2 14.221875,3.58947368 14.453125,4.74736842 C14.684375,5.90526316 18.5,21.1894737 13.18125,33 C13.18125,33 9.94375,40.2947368 5.55,41.4526316 C0.925,42.7263158 3.121875,38.9052632 3.121875,38.9052632 C3.121875,38.9052632 1.271875,40.0631579 1.15625,41.3368421 C1.040625,42.2631579 2.08125,43.4210526 4.278125,43.4210526 C8.209375,43.4210526 20.234375,39.9473684 18.5,13.4315789 C18.384375,11.9263158 18.26875,10.4210526 18.0375,8.8 C17.459375,6.13684211 16.534375,2.77894737 18.26875,4.51578947 L18.26875,4.51578947 L18.26875,4.51578947 Z" id="Shape" fill="#4CA950"></path>
                                                <path d="M32.60625,36.9368421 C32.60625,36.9368421 32.259375,37.9789474 30.409375,39.7157895 C29.715625,40.2947368 27.98125,40.4105263 26.246875,38.2105263 C24.628125,36.0105263 15.03125,21.0736842 4.39375,21.4210526 C1.734375,21.5368421 0.4625,23.7368421 1.61875,25.9368421 C2.196875,26.9789474 5.434375,30.6842105 0.925,38.2105263 C0.925,38.2105263 -2.196875,43.6526316 4.1625,43.6526316 C4.1625,43.6526316 0.809375,43.6526316 3.353125,38.2105263 C5.78125,33.2315789 5.55,30.1052632 3.815625,26.8631579 C2.196875,23.8526316 4.1625,23.5052632 4.278125,23.5052632 L4.39375,23.5052632 C7.8625,23.3894737 13.990625,25.5894737 22.2,38.2105263 C22.2,38.2105263 25.9,43.3052632 29.946875,41.9157895 C33.646875,40.6421053 32.60625,36.9368421 32.60625,36.9368421 L32.60625,36.9368421 L32.60625,36.9368421 Z" id="Shape" fill="#59C6E5"></path>
                                                <path d="M14.3375,4.74736842 C14.3375,4.74736842 14.221875,1.27368421 18.26875,4.4 C22.546875,7.87368421 37.578125,33 30.29375,39.7157895 C26.246875,42.7263158 22.2,37.9789474 22.2,37.9789474 C22.2,37.9789474 26.246875,44.5789474 30.525,43.7684211 C30.525,43.7684211 39.3125,43.1894737 34.803125,26.8631579 C31.103125,13.7789474 21.159375,-0.115789474 16.65,0.463157895 C14.915625,0.694736842 14.10625,2.43157895 14.3375,4.74736842 L14.3375,4.74736842 L14.3375,4.74736842 Z" id="Shape" fill="#B9C935"></path>
                                            </g>
                                        </g>
                                    </g>
                                </g>
                            </g>
                        </g>
                    </g>
                </g>
            </g>
        </g>
    </g>
</svg>