<?xml version="1.0" encoding="UTF-8"?>
<svg width="82px" height="82px" viewBox="0 0 82 82" version="1.1" xmlns="http://www.w3.org/2000/svg" xmlns:xlink="http://www.w3.org/1999/xlink">
    <!-- Generator: Sketch 39.1 (31720) - http://www.bohemiancoding.com/sketch -->
    <title>service-ui</title>
    <desc>Created with Sketch.</desc>
    <defs>
        <linearGradient x1="7.75114638%" y1="7.87336861%" x2="92.1220459%" y2="92.2442681%" id="linearGradient-1">
            <stop stop-color="#E83820" offset="0%"></stop>
            <stop stop-color="#FFB600" offset="100%"></stop>
        </linearGradient>
    </defs>
    <g id="首頁" stroke="none" stroke-width="1" fill="none" fill-rule="evenodd">
        <g id="首頁設計" transform="translate(-680.000000, -819.000000)">
            <g id="服務項目-copy-3" transform="translate(1.000000, 610.000000)">
                <g id="Group-8" transform="translate(215.000000, 198.000000)">
                    <g id="Group" transform="translate(355.000000, 12.000000)">
                        <g id="service-ui" transform="translate(110.000000, 0.000000)">
                            <path d="M80,58.6948854 C80,70.4056437 70.4056437,80 58.6948854,80 L21.3051146,80 C9.59435626,80 0,70.4056437 0,58.6948854 L0,21.3051146 C0,9.45326279 9.59435626,0 21.3051146,0 L58.6948854,0 C70.5467372,0 80,9.59435626 80,21.3051146 L80,58.6948854 L80,58.6948854 Z" id="Shape" stroke="url(#linearGradient-1)" stroke-width="1.2"></path>
                            <path d="M26,31 L28.324,31 L28.324,41.836 C28.324,42.9373388 28.4359989,43.8613296 28.66,44.608 C28.8840011,45.3546704 29.1873314,45.9519978 29.57,46.4 C29.9526686,46.8480022 30.4053307,47.169999 30.928,47.366 C31.4506693,47.562001 32.0106637,47.66 32.608,47.66 C33.2240031,47.66 33.7933307,47.562001 34.316,47.366 C34.8386693,47.169999 35.295998,46.8480022 35.688,46.4 C36.080002,45.9519978 36.3879989,45.3546704 36.612,44.608 C36.8360011,43.8613296 36.948,42.9373388 36.948,41.836 L36.948,31 L39.188,31 L39.188,41.78 C39.188,43.254674 39.0200017,44.495995 38.684,45.504 C38.3479983,46.512005 37.8860029,47.3286635 37.298,47.954 C36.7099971,48.5793365 36.0146707,49.027332 35.212,49.298 C34.4093293,49.568668 33.541338,49.704 32.608,49.704 C31.674662,49.704 30.8020041,49.568668 29.99,49.298 C29.1779959,49.027332 28.4780029,48.5793365 27.89,47.954 C27.3019971,47.3286635 26.8400017,46.512005 26.504,45.504 C26.1679983,44.495995 26,43.254674 26,41.78 L26,31 Z M48.144,31 L50.468,31 L50.468,49.368 L48.144,49.368 L48.144,31 Z" id="UI" fill="url(#linearGradient-1)"></path>
                        </g>
                    </g>
                </g>
            </g>
        </g>
    </g>
</svg>