<?xml version="1.0" encoding="UTF-8"?>
<svg width="82px" height="82px" viewBox="0 0 82 82" version="1.1" xmlns="http://www.w3.org/2000/svg" xmlns:xlink="http://www.w3.org/1999/xlink">
    <!-- Generator: Sketch 39.1 (31720) - http://www.bohemiancoding.com/sketch -->
    <title>service-mvp</title>
    <desc>Created with Sketch.</desc>
    <defs>
        <linearGradient x1="7.75114638%" y1="7.87336861%" x2="92.1220459%" y2="92.2442681%" id="linearGradient-1">
            <stop stop-color="#02AAB0" offset="0%"></stop>
            <stop stop-color="#34D2A0" offset="100%"></stop>
        </linearGradient>
    </defs>
    <g id="首頁" stroke="none" stroke-width="1" fill="none" fill-rule="evenodd">
        <g id="首頁設計" transform="translate(-680.000000, -1080.000000)">
            <g id="服務項目-copy-3" transform="translate(1.000000, 610.000000)">
                <g id="Group-8" transform="translate(215.000000, 198.000000)">
                    <g id="Group" transform="translate(355.000000, 273.000000)">
                        <g id="service-mvp" transform="translate(110.000000, 0.000000)">
                            <path d="M80,58.6948854 C80,70.4056437 70.4056437,80 58.6948854,80 L21.3051146,80 C9.59435626,80 0,70.4056437 0,58.6948854 L0,21.3051146 C0,9.45326279 9.59435626,0 21.3051146,0 L58.6948854,0 C70.5467372,0 80,9.59435626 80,21.3051146 L80,58.6948854 L80,58.6948854 Z" id="Shape" stroke="url(#linearGradient-1)" stroke-width="1.2"></path>
                            <path d="M17.068,31.632 L19.812,31.632 L23.368,41.488 L24.712,45.24 L24.824,45.24 L26.112,41.488 L29.64,31.632 L32.384,31.632 L32.384,50 L30.172,50 L30.172,39.892 C30.172,39.0706626 30.2046663,38.1653383 30.27,37.176 C30.3353337,36.1866617 30.405333,35.2813374 30.48,34.46 L30.368,34.46 L28.884,38.548 L25.356,48.152 L24.04,48.152 L20.484,38.548 L19.028,34.46 L18.916,34.46 C18.9720003,35.2813374 19.037333,36.1866617 19.112,37.176 C19.186667,38.1653383 19.224,39.0706626 19.224,39.892 L19.224,50 L17.068,50 L17.068,31.632 Z M34.904,31.632 L37.396,31.632 L40.336,41.544 C40.6720017,42.6453388 40.9659987,43.662662 41.218,44.596 C41.4700013,45.529338 41.7733316,46.5373279 42.128,47.62 L42.24,47.62 C42.5760017,46.5373279 42.8746654,45.529338 43.136,44.596 C43.3973346,43.662662 43.6866651,42.6453388 44.004,41.544 L46.944,31.632 L49.324,31.632 L43.5,50 L40.784,50 L34.904,31.632 Z M51.844,31.632 L57.472,31.632 C58.480005,31.632 59.4039958,31.7253324 60.244,31.912 C61.0840042,32.0986676 61.7979971,32.4019979 62.386,32.822 C62.9740029,33.2420021 63.4313317,33.7973299 63.758,34.488 C64.0846683,35.1786701 64.248,36.027995 64.248,37.036 C64.248,38.0066715 64.0846683,38.8466631 63.758,39.556 C63.4313317,40.2653369 62.9693363,40.853331 62.372,41.32 C61.7746637,41.786669 61.0606708,42.1366655 60.23,42.37 C59.3993292,42.6033345 58.480005,42.72 57.472,42.72 L54.168,42.72 L54.168,50 L51.844,50 L51.844,31.632 Z M57.192,40.816 C58.7973414,40.816 59.9873295,40.5126697 60.762,39.906 C61.5366705,39.2993303 61.924,38.3426732 61.924,37.036 C61.924,35.71066 61.5320039,34.7913359 60.748,34.278 C59.9639961,33.7646641 58.7786746,33.508 57.192,33.508 L54.168,33.508 L54.168,40.816 L57.192,40.816 Z" id="MVP" fill="url(#linearGradient-1)"></path>
                        </g>
                    </g>
                </g>
            </g>
        </g>
    </g>
</svg>