<?xml version="1.0" encoding="UTF-8"?>
<svg width="82px" height="82px" viewBox="0 0 82 82" version="1.1" xmlns="http://www.w3.org/2000/svg" xmlns:xlink="http://www.w3.org/1999/xlink">
    <!-- Generator: Sketch 39.1 (31720) - http://www.bohemiancoding.com/sketch -->
    <title>service-rwd</title>
    <desc>Created with Sketch.</desc>
    <defs>
        <linearGradient x1="0%" y1="0%" x2="101.999998%" y2="100.999999%" id="linearGradient-1">
            <stop stop-color="#3023AE" offset="0%"></stop>
            <stop stop-color="#C96DD8" offset="100%"></stop>
        </linearGradient>
    </defs>
    <g id="首頁" stroke="none" stroke-width="1" fill="none" fill-rule="evenodd">
        <g id="service-rwd" transform="translate(1.000000, 1.000000)">
            <path d="M80,58.6948854 C80,70.4056437 70.4056437,80 58.6948854,80 L21.3051146,80 C9.59435626,80 0,70.4056437 0,58.6948854 L0,21.3051146 C0,9.45326279 9.59435626,0 21.3051146,0 L58.6948854,0 C70.5467372,0 80,9.59435626 80,21.3051146 L80,58.6948854 L80,58.6948854 Z" id="Shape" stroke="url(#linearGradient-1)" stroke-width="1.2"></path>
            <path d="M16.324,39.708 L19.404,39.708 C20.8413405,39.708 21.9426628,39.4140029 22.708,38.826 C23.4733372,38.2379971 23.856,37.3466726 23.856,36.152 C23.856,34.9386606 23.4733372,34.0893358 22.708,33.604 C21.9426628,33.1186642 20.8413405,32.876 19.404,32.876 L16.324,32.876 L16.324,39.708 Z M24.08,49.368 L19.656,41.612 L16.324,41.612 L16.324,49.368 L14,49.368 L14,31 L19.74,31 C20.673338,31 21.5366627,31.0886658 22.33,31.266 C23.1233373,31.4433342 23.8046638,31.7373313 24.374,32.148 C24.9433362,32.5586687 25.3866651,33.0906634 25.704,33.744 C26.0213349,34.3973366 26.18,35.1999952 26.18,36.152 C26.18,37.5893405 25.8066704,38.737329 25.06,39.596 C24.3133296,40.454671 23.3146729,41.0426651 22.064,41.36 L26.712,49.368 L24.08,49.368 Z M28.392,31 L30.8,31 L32.732,40.996 C32.9000008,42.004005 33.0773324,42.9933285 33.264,43.964 C33.4506676,44.9346715 33.6279992,45.923995 33.796,46.932 L33.908,46.932 C34.1133344,45.923995 34.3279989,44.9300049 34.552,43.95 C34.7760011,42.9699951 34.9906656,41.9853383 35.196,40.996 L37.744,31 L39.872,31 L42.42,40.996 C42.6440011,41.9666715 42.8679989,42.9466617 43.092,43.936 C43.3160011,44.9253383 43.5399989,45.923995 43.764,46.932 L43.876,46.932 C44.0440008,45.923995 44.2119992,44.9300049 44.38,43.95 C44.5480008,42.9699951 44.7253324,41.9853383 44.912,40.996 L46.844,31 L49.084,31 L45.276,49.368 L42.476,49.368 L39.704,38.308 C39.5359992,37.5986631 39.3820007,36.9033367 39.242,36.222 C39.1019993,35.5406633 38.9573341,34.8453369 38.808,34.136 L38.696,34.136 C38.5466659,34.8453369 38.3926675,35.5406633 38.234,36.222 C38.0753325,36.9033367 37.9213341,37.5986631 37.772,38.308 L35.056,49.368 L32.284,49.368 L28.392,31 Z M52.276,31 L56.868,31 C59.7053475,31 61.861326,31.7839922 63.336,33.352 C64.810674,34.9200078 65.548,37.1693187 65.548,40.1 C65.548,41.5560073 65.3613352,42.8579943 64.988,44.006 C64.6146648,45.1540057 64.0640036,46.1246627 63.336,46.918 C62.6079964,47.7113373 61.7120053,48.3179979 60.648,48.738 C59.5839947,49.1580021 58.3613402,49.368 56.98,49.368 L52.276,49.368 L52.276,31 Z M56.7,47.464 C58.8466774,47.464 60.4566613,46.8200064 61.53,45.532 C62.6033387,44.2439936 63.14,42.433345 63.14,40.1 C63.14,37.766655 62.6033387,35.9840062 61.53,34.752 C60.4566613,33.5199938 58.8466774,32.904 56.7,32.904 L54.6,32.904 L54.6,47.464 L56.7,47.464 Z" id="RWD" fill="url(#linearGradient-1)"></path>
        </g>
    </g>
</svg>