<?xml version="1.0" encoding="UTF-8"?>
<svg width="82px" height="82px" viewBox="0 0 82 82" version="1.1" xmlns="http://www.w3.org/2000/svg" xmlns:xlink="http://www.w3.org/1999/xlink">
    <!-- Generator: Sketch 39.1 (31720) - http://www.bohemiancoding.com/sketch -->
    <title>service-ux</title>
    <desc>Created with Sketch.</desc>
    <defs>
        <linearGradient x1="92.1220459%" y1="92.2442681%" x2="7.75114638%" y2="7.87336861%" id="linearGradient-1">
            <stop stop-color="#FF71D4" offset="0%"></stop>
            <stop stop-color="#E82055" offset="100%"></stop>
        </linearGradient>
    </defs>
    <g id="首頁" stroke="none" stroke-width="1" fill="none" fill-rule="evenodd">
        <g id="首頁設計" transform="translate(-325.000000, -817.000000)">
            <g id="服務項目-copy-3" transform="translate(1.000000, 610.000000)">
                <g id="Group-8" transform="translate(215.000000, 198.000000)">
                    <g id="Group">
                        <g id="service-ux" transform="translate(110.000000, 10.000000)">
                            <path d="M25,31 L27.324,31 L27.324,41.836 C27.324,42.9373388 27.4359989,43.8613296 27.66,44.608 C27.8840011,45.3546704 28.1873314,45.9519978 28.57,46.4 C28.9526686,46.8480022 29.4053307,47.169999 29.928,47.366 C30.4506693,47.562001 31.0106637,47.66 31.608,47.66 C32.2240031,47.66 32.7933307,47.562001 33.316,47.366 C33.8386693,47.169999 34.295998,46.8480022 34.688,46.4 C35.080002,45.9519978 35.3879989,45.3546704 35.612,44.608 C35.8360011,43.8613296 35.948,42.9373388 35.948,41.836 L35.948,31 L38.188,31 L38.188,41.78 C38.188,43.254674 38.0200017,44.495995 37.684,45.504 C37.3479983,46.512005 36.8860029,47.3286635 36.298,47.954 C35.7099971,48.5793365 35.0146707,49.027332 34.212,49.298 C33.4093293,49.568668 32.541338,49.704 31.608,49.704 C30.674662,49.704 29.8020041,49.568668 28.99,49.298 C28.1779959,49.027332 27.4780029,48.5793365 26.89,47.954 C26.3019971,47.3286635 25.8400017,46.512005 25.504,45.504 C25.1679983,44.495995 25,43.254674 25,41.78 L25,31 Z M46.112,39.876 L41.128,31 L43.704,31 L46.196,35.704 C46.4386679,36.1333355 46.6673323,36.5486647 46.882,36.95 C47.0966677,37.3513353 47.3439986,37.822664 47.624,38.364 L47.736,38.364 C47.9973346,37.822664 48.225999,37.3513353 48.422,36.95 C48.618001,36.5486647 48.8279989,36.1333355 49.052,35.704 L51.488,31 L53.952,31 L48.94,39.988 L54.288,49.368 L51.712,49.368 L49.024,44.412 C48.7813321,43.9639978 48.5340013,43.5020024 48.282,43.026 C48.0299987,42.5499976 47.7546682,42.0320028 47.456,41.472 L47.344,41.472 C47.0826654,42.0320028 46.8306679,42.5499976 46.588,43.026 C46.3453321,43.5020024 46.1120011,43.9639978 45.888,44.412 L43.228,49.368 L40.764,49.368 L46.112,39.876 Z" id="UX" fill="url(#linearGradient-1)"></path>
                            <path d="M80,58.6948854 C80,70.4056437 70.4056437,80 58.6948854,80 L21.3051146,80 C9.59435626,80 0,70.4056437 0,58.6948854 L0,21.3051146 C0,9.45326279 9.59435626,0 21.3051146,0 L58.6948854,0 C70.5467372,0 80,9.59435626 80,21.3051146 L80,58.6948854 L80,58.6948854 Z" id="Shape" stroke="url(#linearGradient-1)" stroke-width="1.2"></path>
                        </g>
                    </g>
                </g>
            </g>
        </g>
    </g>
</svg>