<?xml version="1.0" encoding="UTF-8"?>
<svg width="82px" height="82px" viewBox="0 0 82 82" version="1.1" xmlns="http://www.w3.org/2000/svg" xmlns:xlink="http://www.w3.org/1999/xlink">
    <!-- Generator: Sketch 39.1 (31720) - http://www.bohemiancoding.com/sketch -->
    <title>service-vd</title>
    <desc>Created with Sketch.</desc>
    <defs>
        <linearGradient x1="7.75114638%" y1="7.87336861%" x2="92.1220459%" y2="92.2442681%" id="linearGradient-1">
            <stop stop-color="#3A7BD5" offset="0%"></stop>
            <stop stop-color="#00D2FF" offset="100%"></stop>
        </linearGradient>
    </defs>
    <g id="首頁" stroke="none" stroke-width="1" fill="none" fill-rule="evenodd">
        <g id="service-vd" transform="translate(1.000000, 1.000000)">
            <g id="Group-16">
                <path d="M24,31 L26.492,31 L29.432,40.912 C29.7680017,42.0133388 30.0619987,43.030662 30.314,43.964 C30.5660013,44.897338 30.8693316,45.9053279 31.224,46.988 L31.336,46.988 C31.6720017,45.9053279 31.9706654,44.897338 32.232,43.964 C32.4933346,43.030662 32.7826651,42.0133388 33.1,40.912 L36.04,31 L38.42,31 L32.596,49.368 L29.88,49.368 L24,31 Z M40.94,31 L45.532,31 C48.3693475,31 50.525326,31.7839922 52,33.352 C53.474674,34.9200078 54.212,37.1693187 54.212,40.1 C54.212,41.5560073 54.0253352,42.8579943 53.652,44.006 C53.2786648,45.1540057 52.7280036,46.1246627 52,46.918 C51.2719964,47.7113373 50.3760053,48.3179979 49.312,48.738 C48.2479947,49.1580021 47.0253402,49.368 45.644,49.368 L40.94,49.368 L40.94,31 Z M45.364,47.464 C47.5106774,47.464 49.1206613,46.8200064 50.194,45.532 C51.2673387,44.2439936 51.804,42.433345 51.804,40.1 C51.804,37.766655 51.2673387,35.9840062 50.194,34.752 C49.1206613,33.5199938 47.5106774,32.904 45.364,32.904 L43.264,32.904 L43.264,47.464 L45.364,47.464 Z" id="VD" fill="url(#linearGradient-1)"></path>
                <path d="M80,58.6948854 C80,70.4056437 70.4056437,80 58.6948854,80 L21.3051146,80 C9.59435626,80 0,70.4056437 0,58.6948854 L0,21.3051146 C0,9.45326279 9.59435626,0 21.3051146,0 L58.6948854,0 C70.5467372,0 80,9.59435626 80,21.3051146 L80,58.6948854 L80,58.6948854 Z" id="Shape" stroke="url(#linearGradient-1)" stroke-width="1.2"></path>
            </g>
        </g>
    </g>
</svg>