<?xml version="1.0" encoding="UTF-8"?>
<svg width="82px" height="82px" viewBox="0 0 82 82" version="1.1" xmlns="http://www.w3.org/2000/svg" xmlns:xlink="http://www.w3.org/1999/xlink">
    <!-- Generator: Sketch 39.1 (31720) - http://www.bohemiancoding.com/sketch -->
    <title>service-consult</title>
    <desc>Created with Sketch.</desc>
    <defs>
        <linearGradient x1="101.999998%" y1="100.999999%" x2="1.2490009e-14%" y2="0%" id="linearGradient-1">
            <stop stop-color="#B4B4B4" offset="0%"></stop>
            <stop stop-color="#5F5F5F" offset="100%"></stop>
        </linearGradient>
    </defs>
    <g id="首頁" stroke="none" stroke-width="1" fill="none" fill-rule="evenodd">
        <g id="首頁設計" transform="translate(-1035.000000, -1080.000000)">
            <g id="服務項目-copy-3" transform="translate(1.000000, 610.000000)">
                <g id="Group-8" transform="translate(215.000000, 198.000000)">
                    <g id="Group" transform="translate(710.000000, 273.000000)">
                        <g id="service-consult" transform="translate(110.000000, 0.000000)">
                            <path d="M80,58.6948854 C80,70.4056437 70.4056437,80 58.6948854,80 L21.3051146,80 C9.59435626,80 0,70.4056437 0,58.6948854 L0,21.3051146 C0,9.45326279 9.59435626,0 21.3051146,0 L58.6948854,0 C70.5467372,0 80,9.59435626 80,21.3051146 L80,58.6948854 L80,58.6948854 Z" id="Shape" stroke="url(#linearGradient-1)" stroke-width="1.2"></path>
                            <g id="Group-27" transform="translate(22.000000, 24.000000)" fill="url(#linearGradient-1)">
                                <path d="M32.372093,0 L3.34883721,0 C1.50697674,0 0,1.54285714 0,3.42857143 L0,24 C0,25.8857143 1.50697674,27.4285714 3.34883721,27.4285714 L7.14418605,27.4285714 L9.57209302,31.7142857 C9.57209302,31.7142857 9.57209302,31.7428571 9.6,31.7428571 C9.6,31.7714286 9.62790698,31.7714286 9.62790698,31.8 L9.65581395,31.8285714 C9.65581395,31.8285714 9.68372093,31.8571429 9.71162791,31.8571429 C9.73953488,31.8571429 9.73953488,31.8857143 9.76744186,31.8857143 C9.76744186,31.8857143 9.79534884,31.8857143 9.79534884,31.9142857 L9.82325581,31.9142857 C9.85116279,31.9142857 9.85116279,31.9428571 9.87906977,31.9428571 C9.90697674,31.9428571 9.90697674,31.9428571 9.93488372,31.9714286 L9.99069767,31.9714286 L10.0465116,31.9714286 L10.1023256,31.9714286 L10.1581395,31.9714286 L10.2139535,31.9714286 L10.2697674,31.9714286 C10.2976744,31.9714286 10.2976744,31.9714286 10.3255814,31.9428571 C10.3534884,31.9428571 10.3534884,31.9142857 10.3813953,31.9142857 L10.4093023,31.9142857 C10.4093023,31.9142857 10.4372093,31.9142857 10.4372093,31.8857143 C10.4651163,31.8857143 10.4651163,31.8571429 10.4930233,31.8571429 C10.5209302,31.8571429 10.5209302,31.8285714 10.5209302,31.8285714 L10.5488372,31.8 C10.5488372,31.7714286 10.5767442,31.7714286 10.5767442,31.7428571 C10.5767442,31.7428571 10.5767442,31.7142857 10.6046512,31.7142857 L13.0325581,27.4285714 L32.455814,27.4285714 C34.2976744,27.4285714 35.8046512,25.8857143 35.8046512,24 L35.8046512,3.42857143 C35.7209302,1.54285714 34.2139535,0 32.372093,0 L32.372093,0 L32.372093,0 Z M34.6046512,23.4285714 C34.6046512,25 33.3488372,26.2857143 31.8139535,26.2857143 L13.3674419,26.2857143 L12.3069767,26.2857143 L11.6651163,27.4285714 L10.0465116,30.2857143 L8.42790698,27.4285714 L7.78604651,26.2857143 L6.7255814,26.2857143 L3.90697674,26.2857143 C2.37209302,26.2857143 1.11627907,25 1.11627907,23.4285714 L1.11627907,4 C1.11627907,2.42857143 2.37209302,1.14285714 3.90697674,1.14285714 L31.8139535,1.14285714 C33.3488372,1.14285714 34.6046512,2.42857143 34.6046512,4 L34.6046512,23.4285714 L34.6046512,23.4285714 L34.6046512,23.4285714 Z" id="Shape"></path>
                                <path d="M17.8604651,10.8571429 C16.3255814,10.8571429 15.0697674,12.1428571 15.0697674,13.7142857 C15.0697674,15.2857143 16.3255814,16.5714286 17.8604651,16.5714286 C19.3953488,16.5714286 20.6511628,15.2857143 20.6511628,13.7142857 C20.6511628,12.1428571 19.3953488,10.8571429 17.8604651,10.8571429 L17.8604651,10.8571429 L17.8604651,10.8571429 Z M17.8604651,15.4285714 C16.9395349,15.4285714 16.1860465,14.6571429 16.1860465,13.7142857 C16.1860465,12.7714286 16.9395349,12 17.8604651,12 C18.7813953,12 19.5348837,12.7714286 19.5348837,13.7142857 C19.5348837,14.6571429 18.7813953,15.4285714 17.8604651,15.4285714 L17.8604651,15.4285714 L17.8604651,15.4285714 Z" id="Shape"></path>
                                <path d="M27.3488372,10.8571429 C25.8139535,10.8571429 24.5581395,12.1428571 24.5581395,13.7142857 C24.5581395,15.2857143 25.8139535,16.5714286 27.3488372,16.5714286 C28.8837209,16.5714286 30.1395349,15.2857143 30.1395349,13.7142857 C30.1395349,12.1428571 28.8837209,10.8571429 27.3488372,10.8571429 L27.3488372,10.8571429 L27.3488372,10.8571429 Z M27.3488372,15.4285714 C26.427907,15.4285714 25.6744186,14.6571429 25.6744186,13.7142857 C25.6744186,12.7714286 26.427907,12 27.3488372,12 C28.2697674,12 29.0232558,12.7714286 29.0232558,13.7142857 C29.0232558,14.6571429 28.2697674,15.4285714 27.3488372,15.4285714 L27.3488372,15.4285714 L27.3488372,15.4285714 Z" id="Shape"></path>
                                <path d="M8.37209302,10.8571429 C6.8372093,10.8571429 5.58139535,12.1428571 5.58139535,13.7142857 C5.58139535,15.2857143 6.8372093,16.5714286 8.37209302,16.5714286 C9.90697674,16.5714286 11.1627907,15.2857143 11.1627907,13.7142857 C11.1627907,12.1428571 9.90697674,10.8571429 8.37209302,10.8571429 L8.37209302,10.8571429 L8.37209302,10.8571429 Z M8.37209302,15.4285714 C7.45116279,15.4285714 6.69767442,14.6571429 6.69767442,13.7142857 C6.69767442,12.7714286 7.45116279,12 8.37209302,12 C9.29302326,12 10.0465116,12.7714286 10.0465116,13.7142857 C10.0465116,14.6571429 9.29302326,15.4285714 8.37209302,15.4285714 L8.37209302,15.4285714 L8.37209302,15.4285714 Z" id="Shape"></path>
                            </g>
                        </g>
                    </g>
                </g>
            </g>
        </g>
    </g>
</svg>